<mxfile host="65bd71144e">
    <diagram id="UuFt3vJ0S_MjkjkK465B" name="Page-1">
        <mxGraphModel dx="1003" dy="473" grid="1" gridSize="10" guides="1" tooltips="1" connect="1" arrows="1" fold="1" page="1" pageScale="1" pageWidth="4681" pageHeight="3300" math="1" shadow="0">
            <root>
                <mxCell id="0"/>
                <mxCell id="1" parent="0"/>
                <mxCell id="6" value="" style="ellipse;whiteSpace=wrap;html=1;aspect=fixed;" vertex="1" parent="1">
                    <mxGeometry x="450" y="190" width="20" height="20" as="geometry"/>
                </mxCell>
                <mxCell id="10" value="" style="group" vertex="1" connectable="0" parent="1">
                    <mxGeometry x="160" y="160" width="120" height="120" as="geometry"/>
                </mxCell>
                <mxCell id="9" value="" style="ellipse;whiteSpace=wrap;html=1;aspect=fixed;fillColor=none;dashed=1;" vertex="1" parent="10">
                    <mxGeometry width="120" height="120" as="geometry"/>
                </mxCell>
                <mxCell id="3" value="" style="ellipse;whiteSpace=wrap;html=1;aspect=fixed;" vertex="1" parent="10">
                    <mxGeometry x="50" y="50" width="20" height="20" as="geometry"/>
                </mxCell>
                <mxCell id="20" style="edgeStyle=none;html=1;entryX=0;entryY=0;entryDx=0;entryDy=0;endArrow=none;endFill=0;fillColor=#f8cecc;strokeColor=#b85450;strokeWidth=2;" edge="1" parent="10" source="5" target="3">
                    <mxGeometry relative="1" as="geometry"/>
                </mxCell>
                <mxCell id="5" value="" style="ellipse;whiteSpace=wrap;html=1;aspect=fixed;" vertex="1" parent="10">
                    <mxGeometry x="10" y="10" width="20" height="20" as="geometry"/>
                </mxCell>
                <mxCell id="2" value="" style="ellipse;whiteSpace=wrap;html=1;aspect=fixed;" vertex="1" parent="10">
                    <mxGeometry x="20" y="90" width="20" height="20" as="geometry"/>
                </mxCell>
                <mxCell id="29" value="$$x_2$$" style="text;html=1;align=center;verticalAlign=middle;whiteSpace=wrap;rounded=0;fontStyle=0" vertex="1" parent="10">
                    <mxGeometry x="32" y="62" width="30" height="20" as="geometry"/>
                </mxCell>
                <mxCell id="11" value="" style="group" vertex="1" connectable="0" parent="1">
                    <mxGeometry x="220" y="170" width="180" height="120" as="geometry"/>
                </mxCell>
                <mxCell id="12" value="" style="ellipse;whiteSpace=wrap;html=1;aspect=fixed;fillColor=none;dashed=1;" vertex="1" parent="11">
                    <mxGeometry width="120" height="120" as="geometry"/>
                </mxCell>
                <mxCell id="13" value="" style="ellipse;whiteSpace=wrap;html=1;aspect=fixed;" vertex="1" parent="11">
                    <mxGeometry x="50" y="50" width="20" height="20" as="geometry"/>
                </mxCell>
                <mxCell id="4" value="" style="ellipse;whiteSpace=wrap;html=1;aspect=fixed;" vertex="1" parent="11">
                    <mxGeometry x="30" y="10" width="20" height="20" as="geometry"/>
                </mxCell>
                <mxCell id="14" value="" style="group" vertex="1" connectable="0" parent="11">
                    <mxGeometry x="60" y="-20" width="120" height="120" as="geometry"/>
                </mxCell>
                <mxCell id="15" value="" style="ellipse;whiteSpace=wrap;html=1;aspect=fixed;fillColor=none;dashed=1;" vertex="1" parent="14">
                    <mxGeometry width="120" height="120" as="geometry"/>
                </mxCell>
                <mxCell id="16" value="" style="ellipse;whiteSpace=wrap;html=1;aspect=fixed;" vertex="1" parent="14">
                    <mxGeometry x="50" y="50" width="20" height="20" as="geometry"/>
                </mxCell>
                <mxCell id="27" value="" style="ellipse;whiteSpace=wrap;html=1;aspect=fixed;" vertex="1" parent="14">
                    <mxGeometry x="30" width="20" height="20" as="geometry"/>
                </mxCell>
                <mxCell id="22" style="edgeStyle=none;html=1;entryX=0.024;entryY=0.716;entryDx=0;entryDy=0;entryPerimeter=0;endArrow=none;endFill=0;strokeWidth=2;fillColor=#f8cecc;strokeColor=#b85450;" edge="1" parent="11" source="13" target="16">
                    <mxGeometry relative="1" as="geometry"/>
                </mxCell>
                <mxCell id="28" value="$$x_1$$" style="text;html=1;align=center;verticalAlign=middle;whiteSpace=wrap;rounded=0;fontStyle=0" vertex="1" parent="11">
                    <mxGeometry x="48" y="69" width="30" height="20" as="geometry"/>
                </mxCell>
                <mxCell id="17" value="" style="group" vertex="1" connectable="0" parent="1">
                    <mxGeometry x="340" y="160" width="120" height="120" as="geometry"/>
                </mxCell>
                <mxCell id="18" value="" style="ellipse;whiteSpace=wrap;html=1;aspect=fixed;fillColor=none;dashed=1;" vertex="1" parent="17">
                    <mxGeometry width="120" height="120" as="geometry"/>
                </mxCell>
                <mxCell id="19" value="" style="ellipse;whiteSpace=wrap;html=1;aspect=fixed;" vertex="1" parent="17">
                    <mxGeometry x="50" y="50" width="20" height="20" as="geometry"/>
                </mxCell>
                <mxCell id="7" value="" style="ellipse;whiteSpace=wrap;html=1;aspect=fixed;" vertex="1" parent="17">
                    <mxGeometry x="40" y="10" width="20" height="20" as="geometry"/>
                </mxCell>
                <mxCell id="25" value="" style="ellipse;whiteSpace=wrap;html=1;aspect=fixed;" vertex="1" parent="17">
                    <mxGeometry x="100" width="20" height="20" as="geometry"/>
                </mxCell>
                <mxCell id="26" value="" style="ellipse;whiteSpace=wrap;html=1;aspect=fixed;" vertex="1" parent="17">
                    <mxGeometry x="90" y="80" width="20" height="20" as="geometry"/>
                </mxCell>
                <mxCell id="21" style="edgeStyle=none;html=1;entryX=0;entryY=0.5;entryDx=0;entryDy=0;endArrow=none;endFill=0;fillColor=#f8cecc;strokeColor=#b85450;strokeWidth=2;" edge="1" parent="1" source="3" target="13">
                    <mxGeometry relative="1" as="geometry"/>
                </mxCell>
                <mxCell id="23" style="edgeStyle=none;html=1;entryX=0;entryY=0.5;entryDx=0;entryDy=0;endArrow=none;endFill=0;strokeWidth=2;fillColor=#f8cecc;strokeColor=#b85450;" edge="1" parent="1" source="16" target="19">
                    <mxGeometry relative="1" as="geometry"/>
                </mxCell>
                <mxCell id="24" style="edgeStyle=none;html=1;entryX=0;entryY=0.5;entryDx=0;entryDy=0;endArrow=none;endFill=0;fillColor=#f8cecc;strokeColor=#b85450;strokeWidth=2;" edge="1" parent="1" source="19" target="6">
                    <mxGeometry relative="1" as="geometry"/>
                </mxCell>
                <mxCell id="30" value="$$x_3$$" style="text;html=1;align=center;verticalAlign=middle;whiteSpace=wrap;rounded=0;fontStyle=0" vertex="1" parent="1">
                    <mxGeometry x="164" y="186" width="30" height="20" as="geometry"/>
                </mxCell>
                <mxCell id="31" value="$$x_4$$" style="text;html=1;align=center;verticalAlign=middle;whiteSpace=wrap;rounded=0;fontStyle=0" vertex="1" parent="1">
                    <mxGeometry x="456" y="203" width="30" height="20" as="geometry"/>
                </mxCell>
                <mxCell id="33" value="&lt;font style=&quot;color: rgb(0, 0, 0);&quot;&gt;虚线显示出ɛ邻域，&lt;span style=&quot;background-color: transparent;&quot;&gt;`\text{MinPts}=3`，&lt;/span&gt;&lt;span style=&quot;background-color: transparent;&quot;&gt;`x_1`为核心对象&lt;/span&gt;&lt;/font&gt;&lt;div&gt;&lt;div&gt;&lt;font style=&quot;color: rgb(0, 0, 0);&quot;&gt;`x_2`&lt;span style=&quot;background-color: transparent;&quot;&gt;由`x_1`&lt;/span&gt;&lt;span style=&quot;background-color: transparent;&quot;&gt;密度直达，&lt;/span&gt;&lt;span style=&quot;background-color: transparent;&quot;&gt;`x_3`由`x_1`密度可达，&lt;/span&gt;&lt;span style=&quot;background-color: transparent;&quot;&gt;`x_3`与`x_4`密度相连&lt;/span&gt;&lt;/font&gt;&lt;/div&gt;&lt;/div&gt;" style="text;html=1;align=left;verticalAlign=middle;resizable=0;points=[];autosize=1;strokeColor=none;fillColor=none;fontFamily=思源宋体;fontSize=8;" vertex="1" parent="1">
                    <mxGeometry x="200" y="290" width="276" height="31" as="geometry"/>
                </mxCell>
                <mxCell id="39" value="" style="shape=image;verticalLabelPosition=bottom;labelBackgroundColor=default;verticalAlign=top;aspect=fixed;imageAspect=0;image=data:image/png,iVBORw0KGgoAAAANSUhEUgAABFQAAAQmCAIAAACRdXzNAAAgAElEQVR4AezdB3Rc1bn2cZveE0JoCQkthNCSC4QalMKFXNIgJJAQyIVAwg0pl9wQSPmIK9iADaaZZkwx2NjY4AKm2hgwBsuSZUuyrFHvvfcy0sz7LWGwZVkzmnLKLv8s1spoyj57//Y579mPzvFonPA/BBBAAAEEEEAAAQQQQMACgXEWjJEhIoAAAggggAACCCCAAAJC+GEnQAABBBBAAAEEEEAAASsECD9WTDODRAABBBBAAAEEEEAAAcIP+wACCCCAAAIIIIAAAghYIUD4sWKaGSQCCCCAAAIIIIAAAggQftgHEEAAAQQQQAABBBBAwAoBwo8V08wgEUAAAQQQQAABBBBAgPDDPoAAAggggAACCCCAAAJWCBB+rJhmBokAAggggAACCCCAAAKEH/YBBBBAAAEEEEAAAQQQsEKA8GPFNDNIBBBAAAEEEEAAAQQQIPywDyCAAAIIIIAAAggggIAVAoQfK6aZQSKAAAIIIIAAAggggADhh30AAQQQQAABBBBAAAEErBAg/FgxzQwSAQQQQAABBBBAAAEECD/sAwgggAACCCCAAAIIIGCFAOHHimlmkAgggAACCCCAAAIIIED4YR9AwAKBwS7prZCOLGleI7UvSeWTUny35P9Dcv8sOTfJlhtlyw2Sda1kXSOZV8mmK2XTzyTjMtn4I0m/RNIulg3fk9RvDz3IuEwyrx56f+5fJP//SdE0Kb1fKudIzQKpXyaNb0nLOmnfJH11FpgyRAQQQAABBBDQT4Dwo9+c0WMEIgoEG6X1Q6l8SkrvHQonW2+Szb+QtIskNcXr/zZ8dygmBW6V0llSs1Ca35fuQhnsjthzXkAAAQQQQAABBNwXIPy4b8wWEHBPoK9WWt4fupKTd9vQZRnvQ068W9z4E8n5vRROkYonpWHl0GWiwR73eGgZAQQQQAABBBAYLkD4Ga7BYwSUF+itlOZ3pOIxCfx16La0eLOHmu/PukaK7pCaxUM35oX6lZ8DOogAAggggAACugoQfnSdOfptkUA4OHQzW/HdsvHHhqSd6Bks+zopni61L0tnjoQHLZpohooAAggggAACLgsQflwGpnkEEhboq5WG16TgdtnwHSsyT6RElH2DlNwjdculK5CwJR9EAAEEEEAAAQREhPDDboCAYgJduVI9X3JvtjrwRApCqSlDX6JQt0R6yxWbNrqDAAIIIIAAAhoIEH40mCS6aIVAR5aUPSjZ15F5YhXY/MuhL9puWSeDnVbsIQwSAQQQQAABBJIWIPwkTUgDCCQjEA5Kw+sS+FusK/4ol0Rsfilwi9S8IJ1bk5kKPosAAggggAACxgsQfoyfYgaoqkBPqVTOlcxfEXucFNh0xdA3QzS+KX21qk48/UIAAQQQQAAB3wQIP77Rs2F7BVo/lKKpkvptJxf9Nl/2iTT2rX+SijnStsHePY2RI4AAAggggMDOAoSfnT34CQH3BIItQ/9SP+cmMo/XAlnXSPkjQ39Qlf8hgAACCCCAgN0ChB+755/ReyZQt1Q2X+H1oj/SJRFrn9/y26FbDbtyPZt2NoQAAggggAACSgkQfpSaDjpjokB7Bt9noFzq2/rHoe8T7y42cYdjTAgggAACCCAQUYDwE5GGFxBIViDYLGUPKbfut/ayz6gDz/2r1C6Rvqpk55rPI4AAAggggIAOAoQfHWaJPuooUL9CMq8i+Wgi8G3J/6fUr5D+Rh33NfqMAAIIIIAAAjEKEH5ihOJtCMQs0J4pef/QZNGfQj93Ekj/vhRMksa3JNwf83zzRgQQQAABBBDQRoDwo81U0VENBEK9Uv7oTovpUW+14kn1BTKvkoonpadUg72OLiKAAAIIIIBAzAKEn5ipeCMC0QW6CmTrn0k+Zgl8e+gvMrV8GH3meRUBBBBAAAEEdBEg/OgyU/RTbYGm1ZJxmVnrfu6IGyaQc5PUvSTBVrX3QnqHAAIIIIAAAmMIEH7GAOJlBMYWqHyK2GOFQMZlQ1/fx58JGvuQ4B0IIIAAAggoKkD4UXRi6JYeAsFmKZxsxbpf/X+l42UP8/8lTav12EXpJQIIIIAAAggMEyD8DMPgIQJxCXRkypYbSD72CmRfJ9XPS19NXHsNb0YAAQQQQAABHwUIPz7is2mdBepfkbSL7V33e3mZRfFtpV0sJfdIe4bOezN9RwABBBBAwBYBwo8tM804nRQom03sQWCkQP4/pS3Vyd2MthBAAAEEEEDAaQHCj9OitGe2QG+V5P195KpX8UsTdM9LgYIJXAUyuwYwOgQQQAABrQUIP1pPH533VqAzVzKvIfkgMLZA4RTpyPJ272RrCCCAAAIIIDC2AOFnbCPegcCQQFu6ZFw+9qrXy4sMbEtxgeLpfC821QMBBBBAAAGlBAg/Sk0HnVFVoPl9Sf8vkg8CiQiUzJTuQlX3bPqFAAIIIICAXQKEH7vmm9EmItC0KpElr+IXJeielwIbviul90tPaSK7H59BAAEEEEAAAecECD/OWdKSkQINr5F8EHBGIO1iKZ8tvZVGHigMCgEEEEAAAS0ECD9aTBOd9Emgbrkzq14vLzKwLcUFNv5AKh6Xvlqf9mk2iwACCCCAgNUChB+rp5/BRxOoW0LyQcAtgYxLpfIpGWiPtgfyGgIIIIAAAgg4LUD4cVqU9swQqHnBrVWv4tcl6J6XAlnXSOPrZhwxjAIBBBBAAAEtBAg/WkwTnfRWoGoeyQcB7wQKbpfOrd7u4mwNAQQQQAABSwUIP5ZOPMOOKMC/8/Hy0gfb2iaw4btS8aQMdkfcLXkBAQQQQAABBJwQIPw4oUgbxgh05nj3+37W/QiMEMj+jTStMuZgYiAIIIAAAggoKED4UXBS6JJPAv31JB8E/BcomCRdBT4dA2wWAQQQQAABwwUIP4ZPMMOLVSDUL+mX+L/wHXEpgB/tFEi7WKqekXAw1r2X9yGAAAIIIIBAbAKEn9iceJfxArn/S/JBQC2BLTdK0xrjjzwGiAACCCCAgJcChB8vtdmWqgJlD6m16rXzcgejHlWg6E7pKVH1yKFfCCCAAAIIaCZA+NFswuiu8wLV80k+CCgtkP4DqZ4vEnZ+56dFBBBAAAEELBMg/Fg24Qx3hEDDa0qveke9FMCTdgps/YO0fDBi/+VHBBBAAAEEEIhLgPATFxdvNkugZR3JBwHNBCrnmHUQMhoEEEAAAQQ8FSD8eMrNxhQS6NwqGZdqtvC184oHox4hELhFuvIUOpToCgIIIIAAAvoIEH70mSt66qDAQJtkX0/yQUBXgfQfSP1yBw8ImkIAAQQQQMASAcKPJRPNMHcWKJ6h66p3xEUAfrRZoPhuCbbsvGfzEwIIIIAAAghEEyD8RNPhNTMFGlaSfBAwRCDrOmn9yMzjlFEhgAACCCDgggDhxwVUmlRZoLuYf+pjyLrf5ms+I8Ze9bTKxxx9QwABBBBAQB0Bwo86c0FPPBHI+wdLfwQMFMj7u/QUe3IIsREEEEAAAQQ0FiD8aDx5dD1ugep5Bq56R1wE4EdrBTIulYaVcR8UfAABBBBAAAGbBAg/Ns225WNtSyP5IGC+QMm9Mthp+bHO8BFAAAEEEIgkQPiJJMPzZgkMdMqW35m/8LX2ogcDHy6w5XfSlmbWAcxoEEAAAQQQcEaA8OOMI62oLlA6i+SDgF0CVc+pflTSPwQQQAABBDwXIPx4Ts4GvRdofMOuVe/wiwA8tlmg4N8y0O79AccWEUAAAQQQUFaA8KPs1NAxhwR6ymTT5YQfBCwVyPmD9JQ4dCzRDAIIIIAAAtoLEH60n0IGMIZA/v+zdNVr8xUPxj5cYPMvpS19jMOElxFAAAEEELBDgPBjxzxbO8rG10k+CCAgaRdJ41vWlgEGjgACCCCAwHYBws92Ch4YJzDYKVn/zcIXAQQ+Eah5wbiDnAEhgAACCCAQnwDhJz4v3q2TQMUcVr0IILCTQPlsnQ5h+ooAAggggIDTAoQfp0VpTxGBroBsuHCnZd/wfwXBYwSsFSicosgxSjcQQAABBBDwXoDw4705W/REoGAiyQcBBEYXyP2LJwchG0EAAQQQQEA5AcKPclNChxwQaFo9+prP2l/2M3AERghkXSMSduBYowkEEEAAAQS0EiD8aDVddDYWgVC/bPkt4QcBBMYQSL9E+utiOaR4DwIIIIAAAsYIEH6MmUoG8qlA9bwx1nwjfgXOjwjYLNCx5dMjh/9HAAEEEEDAfAHCj/lzbNcIe0ok/RLCDwIIxCHQtMauKsFoEUAAAQQsFiD8WDz5Rg696M441nw2/76fsSMwXKBmkZH1gEEhgAACCCAwQoDwMwKEH3UWaFlL8kEAgQQFal/U+eCn7wgggAACCMQkQPiJiYk36SGQ84cEl33DfwXOYwSsFWjm/jc9Sh29RAABBBBIWIDwkzAdH1RMoH4FyQcBBJIV6MhR7MCmOwgggAACCDgpQPhxUpO2/BMIS/YNyS77rP19PwNHYLhAT5l/BzJbRgABBBBAwF0Bwo+7vrTukUD9MpIPAgg4JtBf79GRy2YQQAABBBDwVoDw4603W3NDIDwg2dc7tuwb/itwHiNgp0D6JTLQ4cbBSpsIIIAAAgj4K0D48defrTshULeU5IMAAg4LZF8r4QEnjk/aQAABBBBAQCEBwo9Ck0FXEhEIBSX7OoeXfXb+sp9RIzBCIPC3RA5JPoMAAggggIDCAoQfhSeHrsUiULuE5IMAAm4JFN8dy1HIexBAAAEEENBFgPCjy0zRz9EEQn2S9d9uLftG/BacHxGwU6Ds4dGOPZ5DAAEEEEBASwHCj5bTRqc/EahdTPJBAAHXBSrnUnMQQAABBBAwQ4DwY8Y8WjmKUK9kXeP6ss/OX/YzagRGCFQvsLLKMGgEEEAAAdMECD+mzahF46ldRPJBAAHvBOqXWVReGCoCCCCAgKEChB9DJ9b4YQ12SebV3i37RvwWnB8RsFOg8U3jSwsDRAABBBAwW4DwY/b8mju66hdIPggg4INAW7q5ZYWRIYAAAgiYL0D4MX+ODRzhYKdsvsqHZZ+dv+xn1AgMF8i+QYKtBlYVhoQAAgggYIcA4ceOeTZslNXzST4IIOCbQPF0wyoKw0EAAQQQsEeA8GPPXJsy0oF22fwL35Z9w38FzmMErBWoXWJKQWEcCCCAAAJ2CRB+7JpvE0Zb/TzJBwEEfBbYcKG0bzahnjAGBBBAAAHLBAg/lk247sMNtsrmK31e9ln7y34GjsBwgZz/kcEu3SsK/UcAAQQQsE2A8GPbjGs+3urnSD4IIKCKQMlMzQsK3UcAAQQQsE6A8GPdlGs84GCzbP65Ksu+4b8C5zEC1grU8ZdPNa6pdB0BBBCwUIDwY+GkazvkqmdIPgggoJZA+velM0fbmkLHEUAAAQSsEyD8WDflug442CQZl6u17LP2l/0MHIHhAlv/JKE+XQsL/UYAAQQQsEyA8GPZhOs73Op5JB8EEFBUoPR+fUsLPUcAAQQQsEqA8GPVdGs72FCfZP5K0WXf8F+B8xgBawUaVmpbX+g4AggggIBFAoQfiyZb46HWLyP5IICA0gIbfyRdeRoXGbqOAAIIIGCHAOHHjnnWfZQ5v1d62WftL/sZOALDBXL/IuGQ7sWG/iOAAAIImC1A+DF7fo0YXdNqkg8CCOghUD7biKLDIBBAAAEEjBUg/Bg7teYMLHCrHsu+4b8C5zEC1go0vmlO8WEkCCCAAALGCRB+jJtSwwbUlkbyQQABnQSyrpGBNsPqEMNBAAEEEDBGgPBjzFQaOpDCKTot+6z9ZT8DR2C4QPkjhtYjhoUAAgggoL0A4Uf7KTR5AF15JB8EENBSoCPL5NLE2BBAAAEEtBUg/Gg7dTZ0vOx+LZd9w38FzmME7BTI/4cNJYoxIoAAAghoJ0D40W7KrOlwb5Wk/xfhBwEEdBWoX2FNtWKgCCCAAALaCBB+tJkq6zpaOVfXNZ+dv+ln1AiMENh8lQSbrStcDBgBBBBAQG0Bwo/a82Nt7wY6ZNMVhB8EENBboPxha2sYA0cAAQQQUFOA8KPmvFjfq9rFeq/5RvwKnB8RsFagPcP6cgYAAggggIBCAoQfhSaDruwQyL6B8IMAAiYIBG7dcVzzCAEEEEAAAb8FCD9+zwDb31Wg8U0T1nzW/qafgSMwQqB+2a5HOc8ggAACCCDgiwDhxxd2NhpVIPcvhB8EEDBHYNMV0t8Q9ZjnRQQQQAABBDwSIPx4BM1mYhVoWWfOmm/E77/5EQFrBUofiLUC8D4EEEAAAQTcFCD8uKlL2wkIFPyb8IMAAgYKtKcnUA/4CAIIIIAAAs4KEH6c9aS15AQ6sg1c81n7y34GjsBwgYJ/J1cd+DQCCCCAAAIOCBB+HECkCccESmYQfhBAwFiBrnzHagUNIYAAAgggkJAA4SchNj7khkBPmWy40Nhl3/BfgSvwOLw+Jfje2b1vnd716qntS7/WsviE5oXHNS04pnH+0Q3PH904/+imBcc2LzyudckJ7cu+1rXy1N63Th947xxmB4GkBMofcaNy0CYCCCCAAAKxCxB+YrfinS4LVDye1LpKgUShcv87lp/ctODY6jmHl93/mcLpe+dOGJfYf4XT9y67/zPVTxzeOP+YjuUn9b9zpsqjpm9qCWz6mQx0uFxHaB4BBBBAAIFoAoSfaDq85p1AsEUyLlNroWZcmiq7/zOJBZ7onwpM2q1s1kF1T32h7eUT+9/5JpOIQDQB/uaPd1WVLSGAAAIIjCJA+BkFhad8EKhdEm3BZFwO8WWw/e98M3/qHtGTTPKvFk7fu/rxw1qXnBBcc5Yvw2SjSgts/ZMP5YVNIoAAAggg8KkA4edTCf7fX4Gcm5ResZmSvjqWn5x8vIm9heIZ+9U9/cXulacxuQjsEGhL9bfYsHUEEEAAAZsFCD82z74yY29dv2NhZErMUHZEjc8fHXt6ceqd+XfsWT3n8M4VpyjLQse8Eyi6U5nSQ0cQQAABBKwTIPxYN+UqDrjoTu8WXoSr1JSqRw91KtXE207BHXvWzj2y+7WvM+P2CqRdKD3lKhYi+oQAAgggYIEA4ceCSVZ8iD3lsuF79i4E/QhjoQ/PL7pnv3hzi7PvL565f9OCYwbe5+uzU2zc+SufUrws0T0EEEAAAVMFCD+mzqw+46p6xsbFnx+ZZ7hzzxv/4WyYSbi1qscO7Xr11OF947H5AlnXSCioT5GipwgggAAC5ggQfsyZSy1HEg5J1q/NX+r5HXVGFW5dckLCicXxDxbP2L/lxePDH31r1K7ypIECjW9qWbLoNAIIIICA5gKEH80nUPfuN75t4KpOyagzqnPd0190PMYk02DelN3rnzkquIY/FmTBvXCBW3WvXvQfAQQQQEBHAcKPjrNmUJ/z/jHqopwnPRMof/CzycQVlz5b/fhhPW98wzMENuSPQEeWQbWMoSCAAAII6CFA+NFjnszsZedWf5Zc+lyZ8cAn+O7ZBXfu5VKGSbLZ8gcP7lhxsgcIbMIfgbKHzKxsjAoBBBBAQGEBwo/Ck2N818oe8mfJRfjZWaDzlVOSTCmufrz03gPbl57IrmKgQPb1xhc5BogAAgggoJoA4Ue1GbGmPwNtknGZgeu5nXOFLgNsWnCsqwEm+caLZ+zfuuSrunjSz1gFugqtKXkMFAEEEEBACQHCjxLTYGMnal+OdXmkZ5zQbnTVjx+WfERxu4XiGfu1Lj5BO1s6HFGgdomN1Y8xI4AAAgj4J0D48c/e8i1v/VPE9RBpxw+B8EcXlMw8wO304kj7xTP2b3uJG+GM+Ea4gtstL4QMHwEEEEDAYwHCj8fgbO5jgbZUko+CAr1vnx6YON6RfOJBI6X3Hdix/CQFGelSHAIbfywSoiwigAACCCDgmQDhxzNqNjRMoGhaHMsjPy6DWNu9tpdP9CC3OLiJ8gc/27XyNGvny4SBt6YOKw08RAABBBBAwF0Bwo+7vrQ+ikBvpWy40IRFm6GprP7ZoxwMJ940VfXYoX2rzmSn0lKgbPYoVYKnEEAAAQQQcEeA8OOOK61GEaiep+USzdCoM+pcVDz8OW9Ci7NbqX/mqNC680cdEU+qK7DlxijVgpcQQAABBBBwVoDw46wnrY0pEJasa9Vdh9mUcKLMwsD75xRM39vZZOJNa/l37Nny4vFRhsZLKgr0N4xZOHgDAggggAACjggQfhxhpJGYBZpWqbj2IvPsItC18jRv4oobWym978Culaeyp2kj0PBazBWENyKAAAIIIJCUAOEnKT4+HLdA/j+1WZDtkgds63nLouPcSCaetVkz54iB98+xbda0HG/h5LgrCR9AAAEEEEAgIQHCT0JsfCgxga6Aliszi1NQzZwjPMsqbmwob8ruLYu4C075vwi08dLEKgqfQgABBBBAIF4Bwk+8Yrw/CYHy2YQf7QRKZx3oRizxss3yBz/b++bp2snb1eGuvCQqCx9FAAEEEEAgVgHCT6xSvC9ZgYF22XS5Xes5Iy4Z9a0+M2/y7l5mFZe21fjcl9n91BWofj7ZCsPnEUAAAQQQiEGA8BMDEm9xRKBuqboLLyNSinu87cu+5lIg8bjZknsP6H7t6+5B0XLiArk3O1JmaAQBBBBAAIHoAoSf6D686pxA3m2JL4wIJ34LNDz3ZY+Dinubq3/2S+yKygls/JFztYaWEEAAAQQQiChA+IlIwwtOCnQXKrfY8jtOaAdS+cgh7gUSj1seugT0+je0mwLDOxxscrLm0BYCCCCAAAKjCRB+RlPhOccFqp42fN1mQZQa/OC8orv39TiluLq5xvlHs1sqJNCW5njhoUEEEEAAAQRGCBB+RoDwozsC2dcqtMayIKi4pN39+tddTSPeN17+4MH9q7/pEhfNxidQu8id6kOrCCCAAAII7BAg/Oyw4JFbAs1r4lsDEU4UFmh58SveRxRXt5g3ebfWl77KLuq/QPF0t0oQ7SKAAAIIIPCpAOHnUwn+3z2Bgon+r6sUjhPa4dTOPdLVNOJL4zVPHqHdRJjW4Zwb3StCtIwAAggggMA2AcIPe4LLAr0Vpi3RyFGpKWX3f8aXiOLqRktmHtDz5n+wu/omsOFCl4sRzSOAAAIIICCEH3YClwVqFvm2liKluCbQ/8438+/Y09Uo4lfjLYtPYI/1TaC30uV6RPMIIIAAArYLEH5s3wNcH3/uzb4tpFxb+jMiSU3pXHGyX/nE7e3Wzj2SKfZHoPl91ysSG0AAAQQQsFuA8GP3/Ls9+q4Cf5ZQxB5PBJrmH+N2DvGr/bL7P9P/Dt8Cl+L18Vv1jNs1ifYRQAABBCwXIPxYvgO4PPyqZ71ePHmy6GdQ2wWqHjvUr3zi9nbzpuzesfzk7SPlgRcCBRNcLkk0jwACCCBguwDhx/Y9wN3xb7nRiwUTgcc/gfCH3yqeub/bOcTH9psWHMM+7J1A5jXuViRaRwABBBCwXoDwY/0u4B5AW5p3ayb/Vv+Mseet//AxnHiw6ZonDmeWvRMID7hXk2gZAQQQQAABwg/7gGsCJTO9WzARfnwVaF3yVQ9CiI+bKJt1UP+as9ifvRDoynetJNEwAggggAACfNU1+4BLAsFWyfiJF0slXxf9DHC7QN0zX/QxnHiw6fw79+p67bTt4+WBWwKNb7pUk2gWAQQQQAABEcIPe4FLAvUr3FobkXZUFSh/8GAPQoi/m2hdwl8Bcvkr4CrnulSTaBYBBBBAAAHCD/uAawKBWwg/tgkE3z27YNpe/oYTD7be8NyXbZtZT8db9rBrVYmGEUAAAQQQ4MoP+4AbAl0BT1dLql4JsRCh89VTPYgfvm+i5skjLJxcj4ZcMtONmkSbCCCAAAIIbBPgCw/YE1wQKH/Eo3USsUc9gaYFx/oeTjzoQMXDnwutO5/93HmBwikulCSaRAABBBBA4BMBwg+7gtMCg92y+Qrnl0TqrfIZYySB6icO8yB++L6JknsPCPIVcI4fmPn/crok0R4CCCCAAAI7BAg/Oyx45IxAw8pIa2Ket0QgvP6C0nsP8D2ceNCBwrv26X37dEum1aNhBv7qTCGiFQQQQAABBEYTIPyMpsJzyQjwVQeO/y5cwwb73j4jMGk3D+KH75vIn7oHX4HtZC7KuSmZ8sNnEUAAAQQQiC5A+Inuw6txCnRkObkM0nDRz/C3C7QvPdH3ZOJVB8Z3rjhl+8B5kJRA9nVxFh3ejgACCCCAQBwChJ84sHjr2AKlDyS17iHtmCXQ8OyXvIof43zfUPuyk9j5HRDY/Iux6wzvQAABBBBAIFEBwk+icnxuV4GBNsm41IHVj1kBwHKQitmf8z2WeNaB9qVfs3y6HRh+xqW7lhaeQQABBBBAwCkBwo9TkrQjUrfUgaUPyccsgcG15xZO38ez+OH7htpePpGjICmBtIsopggggAACCLgnQPhxz9a+lgP/l9Six6xFPxTbBbpWnuZ7JvGyA1z/2T71CT6QsH3VkxEjgAACCHgkQPjxCNr8zXRuTXChQ+axQKB50fFexg/ft9Wx/GQOh8QFQj3mF0xGiAACCCDgkwDhxyd48zZb8Xjiax0LVv/g1Mw5wvdM4mUHul49lUlPUCDYbF6BZEQIIIAAAooIEH4UmQjNuxEOSebVCS50SD7WCJTOOsjL+OHvtvIm797z1n9wUCQi0FeleUGk+wgggAAC6goQftSdG5161vxuIkscaxb94GwT6Ft9Zt7k3f3NJF5uvXD63sE1ZzH7cQt0F+pU/egrAggggIBWAoQfraZL2c4WTY17fUPysVKgfdlJXsYP37dVcu+B4fXf4uiIT6Bzi7Kljo4hgAACCOguQPjRfQYV6H9fraRdFN/ixsp1P0TbBBqe+7LvmcTLDlQ++nmmPj6BjiwF6hpdQAABBBAwU4DwY+a8ejqq2hfjW9mQfKwXqHr0817GD9+31fDslzhG4hDozPG0grExBBBAAAGbBAg/Ns22S2Pd+qc4ljXWr/uxktSU0Lrziu/Z1/dM4mUH2luVT8wAACAASURBVF7ij5+mxLrzd+e7VKtoFgEEEEAAAcIP+0ByAu2ZsS5oiD0IDBPoeeMbXmYPFbbVt+oMDpaYBLqLk6tKfBoBBBBAAIGIAoSfiDS8EJNA2YMxrWaGrXp5PwLbBFoXf6Vw2t72/Fd630FMfUwCPeUxFR/ehAACCCCAQPwChJ/4zfjEdoHBHtn085hWM4QfBBBAIEaBXv7Oz/YiywMEEEAAAYcFCD8Og9rVXMMbJB8EEEDAYYH+ersKKaNFAAEEEPBQgPDjIbZ5m8r/l8OLnhh/MczbEEDAYIFgs3nFkhEhgAACCCgiQPhRZCI07EZ3MckHAQQQcF5goE3DgkiXEUAAAQT0ECD86DFPKvay6hnnFz0G/zKboSGAQIwCg90qVjz6hAACCCBghADhx4hp9GUQ2dcTfhBAAAHnBUL9vpQ0NooAAgggYIMA4ceGWXZhjC0fOr/iifG3wrwNAQTMFgiHXKhZNIkAAggggMCQAOGH/SAhgeK7CD8IIICA8wLpP0yoJPEhBBBAAAEEYhIg/MTExJt2EuhvlPRLnF/0mP3LbEaHAAKxCGy5cadqww8IIIAAAgg4KkD4cZTTksbqXib5IIAAAq4IFE6ypI4yTAQQQAABXwQIP76wa77R3JtdWfTE8lth3oMAAmYLVM7RvD7SfQQQQAABpQUIP0pPj4qd69hC8kEAAQTcEqhfqWLdo08IIIAAAqYIEH5MmUnPxlE+261Fj9m/z2Z0CCAQi0D7Js+KGRtCAAEEELBQgPBj4aQnMeRQUDb/kvCDAAIIuCXQX59EheKjCCCAAAIIjCFA+BkDiJd3Emha49aKJ5ZfCfMeBBAwW2DDhTsVHH5AAAEEEEDAaQHCj9OiZrdXNJXwgwACCLglkPVrsysoo0MAAQQQ8F2A8OP7FOjTgf4GSf++W4ses3+fzegQQCAWgby/61MQ6SkCCCCAgJYChB8tp82fTtctJfkggAACLgqUPehPcWOrCCCAAALWCBB+rJnq5AcauMXFRU8svxXmPQggYLZA/YrkCxUtIIAAAgggEEWA8BMFh5eGCXTlk3wQQAABdwW68oYVHR4igAACCCDgvADhx3lTM1usfMrdRY/Zv89mdAggMKYAX/Vm5smDUSGAAAJqCRB+1JoPdXuTfT3hBwEEEHBRIOf36hZAeoYAAgggYIoA4ceUmXR1HG2pLq54xvx9MG9AAAEbBEpmulrGaBwBBBBAAAERIfywG8QgUHov4QcBBBBwV4BvO4ihGPMWBBBAAIEkBQg/SQJa8PHBLtn0U3cXPTb8VpsxIoBAdAG+7cCC8wlDRAABBHwXIPz4PgXKd6DxTZIPAggg4K7Axh8pXwrpIAIIIICACQKEHxNm0d0xFNzu7qIn+i+DeRUBBGwQCPyfu3WM1hFAAAEEEPhYgPDDjhBVoLdSUr9N+EEAAQTcFSifHbUS8SICCCCAAALOCBB+nHE0tpWahe6ueGz4lTZjRACBMQVaU42togwMAQQQQEAlAcKPSrOhYF9y/kj4QQABBNwVyLxGweJHlxBAAAEEjBQg/Bg5rQ4NqiPL3RXPmL8M5g0IIGCDAPe8OVSzaQYBBBBAYEwBws+YRBa/oexhwg8CCCDgukD7JovrLENHAAEEEPBUgPDjKbdOGwv1yeYrXV/02PBbbcaIAAJRBLKv16kw0lcEEEAAAc0FCD+aT6B73W98m+SDAAIIuC5Q8YR7ZYyWEUAAAQQQGCFA+BkBwo+fChRMcH3RE+WXwbyEgOUC61MGPzhv4L1zwutTDD8SO7I/LTr8PwIIIIAAAq4LEH5cJ9ZyA70VsuE7hi+5LF9bM3zlBdpePrHkvgPLHzq4du6R7cu+1r/mLFl/gWlHZc6NWlZIOo0AAgggoK0A4UfbqXO149XzTVtjKb/SBRyBEQLVjx+WO2Hc9v/ypuxR/fhhXStPC39kUASqfMrVSkbjCCCAAAIIjBAg/IwA4cePBXJ+P2Idxo8IIOCxQPdrX8+busf28PPpg/FF9+zbtODY0Afnedwf5zeX+UsZaKPmIoAAAggg4KUA4cdLbU221bbR+VUOF14QQCBOgfD6C2qePPLTzLPjEtC2Z8oe+Ezv22fofajWLNKkJtJNBBBAAAFzBAg/5sylYyMpnaX3iirOJSaDRUBZgb5VZ+ZN2i1S/smbvHvDvC8PvH+Osv2P1rHs6yUUdKxq0RACCCCAAAKxCRB+YnOy512DXbLp8mhLFqIFAgh4KFD2wGcihZ9tz5fed2D361/X75itf8WesspIEUAAAQTUESD8qDMXavSk4XX9VlEerkTBQcBjgfZlJ0UPP7kTxgUmjquZc7hOl4C2/kmNekcvEEAAAQSsEyD8WDflYww4/58er+3YHAIIRBEIrTu/4uHPjZl/cieMK7n3gL7VZ0ZpSqGXmt4ZoxDxMgIIIIAAAu4IEH7ccdW01Z4ShZZHXM9BAIGPBbpePTWW8JM7YVz+1D2aFx4XVvzPAeXdpmmBpNsIIIAAAgYIEH4MmETnhlD1LOEHAQRUEwh/dEHRXfvEmH9yJ4yrffLIgbXnqjaKT/qz4TvSkelczaIlBBBAAAEE4hMg/MTnZfi7s29QdMHEFQAE7BZoXnR87OFn6BLQHXu2Lz9JxcO56jnDqyjDQwABBBBQW4Dwo/b8eNm7tlQVl0p2L3mZEQS2CQyuPbfs/jG+9m1EOsqfukfr4q+oBcgNb16WdLaFAAIIIDCaAOFnNBU7nyueodY6idiDAALDBNqWnjgi3sTyY4s6+Sf9EunOt7O4MmoEEEAAAXUECD/qzIWvPQm2ycYfE34QQEBZgcEPzsubsnssgWf4ewKTd2t5UY3rP7VLfK1xbBwBBBBAAIEhAcIP+8HHAvUrlV3z0TEEENgmUPXoocODTeyPmxce57Nh4URKLQIIIIAAAioIEH5UmAUF+sCf9xl2f5HPy0R6gkAEgbaXTwxM2i32zLP9nYFJ45vmH+Pbjr3pZ9JTrkCZowsIIIAAAghw5Yd9QER6ynxbFUVY5NEfBBDYVSD47lklMw/YHmnifdD0wrG7tunFMw0rKbQIIIAAAggoIsCVH0UmwtduVM/3YgFEzkEAgaQF6p/9UryZZ8f7J4734f630vt9rW5sHAEEEEAAgZ0ECD87cVj6w9abCD8IIKCFQPdrX98RZiaMi/vxxHHdb3zDu5EGbhEJWVpXGTYCCCCAgJIChB8lp8XLTrVnercSSvrX3nQVAcsFQuvOy5sc93e+Dc9IZbMOCr53theMm34uPaVeFjO2hQACCCCAwJgChJ8xiUx/Q9lsL5ZBxB4EEHBIoOKhg4eHmQQe18490oujvvl906sn40MAAQQQ0E+A8KPfnDnZ4/CgbL7Ki2WQQ8s+uooAAi2Ljs+dOD6BzLP9I4FJ4ztXnOyuZPXzTlYq2kIAAQQQQMAhAcKPQ5CaNtP8nrsLIDIPAgg4LdC/5qzie/bbnmQSe1Bwx559q8906/AvnqZpRaTbCCCAAALGCxB+jJ/iqAMsutOt1Y/TCz76iQAC2wVq5hyeWOYZ/qnyBz+7vUEnH+TcJIOdUesOLyKAAAIIIOCbAOHHN3r/NxxskvRLnFz0EHgQQMATgdYlXx0eYxJ+3PXqqQ5XgOxr+ZID/2s7PUAAAQQQiCxA+IlsY/wrdcsdXvd4suyjzwgg0LfqzIQDz/APlsw8ILTufMc8My4j+Rh/3mCACCCAgO4ChB/dZzCJ/gdudWzRQ+xBAAEPBULrzg9M2m14jEn4cdtLX3WsDvDF1knUYz6KAAIIIOCNAOHHG2f1ttJd5NiKx8M1H31GAAFJTQl99K2C6XsnHHiGf7Dorn3C6y9wQJXko16Zp0cIIIAAArsKEH52NbHjmapnHVjuEHsQQMAfgQvKZh00PMMk87h54XHJVgOSjx3nDUaJAAIIGCBA+DFgEhMawpbfJbvc8WfNl0K3EUBA1qdUPfr5ZALP8M8W3LlXcM1Ziat2ZCVUg/gQAggggAACPggQfnxA93+T7RsTX+iQeRBAQAGBuqePGh5gknzc8NyXE6kJm6+QgXb/Cxo9QAABBBBAIGYBwk/MVCa9sfSBRBY6Ciz46DYCCGwTaFl0fO6E8Ulmnu0fz79jz+C7Z8dnW3C7SUWRsSCAAAIIWCJA+LFkoocNM9Qnm66Ib5VD7EEAAcUEOl85peDOvbanl+Qf1D71hTjKQvW8YTWFhwgggAACCGgjQPjRZqoc62jT6jiWOIot+Og5AghsE+h9+/Tie/ZLPvNsbyFvyu4Da88dmzf7emlLdawc0RACCCCAAALeChB+vPVWYWuFU8Ze35B5EEBAbYHQh+eXPfDZ7dHFkQcdy08eozhUPC6D3SqUMfqAAAIIIIBAYgKEn8TctP1Uf4OkXTzG+kbtNR+dRwCBbQLVTxzuSObZ3kjNk0dEtA3cIu2btC18dBwBBBBAAIFPBAg/lu0KdUsjLm7IPAggoJVA7dwjt+cWRx6UzNxfdv2Dp+k/lJqFlhVKhosAAgggYKwA4cfYqR19YHm3En4QQMAMAcfDT97k3btWnrYTTsFE6S4evZjwLAIIIIAAAhoKEH40nLSEu9xdvNOyRqtfctNzBBAYLhBef0Hlw59z5ILP8EaG7nxb//GfEt58pdS/mnCx4YMIIIAAAgioKUD4UXNe3OlV1bzhiyceI4CAvgL9q79ZMvOA4bnFkccF0/YaXHuu5N8uvVXulCFaRQABBBBAwE8Bwo+f+l5vO+f3+i716DkCCAwXGPo7P9Oc/Ds/27JTwbR9BgpmeV2a2B4CCCCAAAJeCRB+vJL2fTsdmcNXTjxGAAGtBZpfOC4wcTdHrvYMb6Rg+gHBdq75+F6v6QACCCCAgFsChB+3ZJVrt3y21ks9Oo8AAsMFap50+KvetkWg0oePDvV1KFe+6BACCCCAAAIOCRB+HIJUvZmwZF49fOXEYwQQ0FhgfUr5gw7/hdNt4afm+XMlNKB6PaN/CCCAAAIIJCpA+ElUTq/PtXyg8TqPb6VDAIGRAhcUz9hv+O1qTj1uWHZpOBzSq7zRWwQQQAABBGIXIPzEbqXzO4vvIvwggIAxAqEPz8+buodTgWd7O4HJu7Ws/h+dKx19RwABBBBAYAwBws8YQCa8PNAuGT8xZtnHQBBAoOvVU7cnFgcf5N+xZ8eGySYUPcaAAAIIIIBABAHCTwQYk55ueJ3FIgIImCRQM+cIBzPP9qYKp+/dvXWOScWPsSCAAAIIIDBCgPAzAsTEH/NvN2nZx1gQsFygb9UZBdP23p5YHHxQeNe+/ZWvm1gEGRMCCCCAAAKfCBB+TN8V+qpkw3ctXywyfARMEqh75osOBp7hTRXP2H+wOdP0msj4EEAAAQSsFiD8mD79tS+atOxjLAhYLhD68Pz8O/YcnlgcfFw666BwX73pNZHxIYAAAghYLUD4MX36c2+2fLHI8BEwSaDjlVMcTDsjmip/6GAJD5peExkfAggggIDVAoQfo6e/K2DSso+xIIBA1aOHjkgsDv5Y+fiXjS6IDA4BBBBAAAEh/Bi9E1TOZbGIAALGCLQvPylv8u4Opp0RTdUuONfogsjgEEAAAQQQIPyYvQ9kX2/Mso+BIGC5QHj9BaX3HTgirjj7Y9Ob15ldERkdAggggAACXPkxdx9oS7d8scjwETBJoO2lE52NOru21rX1KXMLIiNDAAEEEEBgSIDwY+5+UHq/SSs/xoKAzQLu/W2f7RGo4M69BjqqzC2IjAwBBBBAAIEhAcKPoftBqFc2/dzmxSJjR8AcgfUpZQ98ZntKcelB5ZzjJTRgaEFkWAgggAACCHwiQPgxdFdoWmXOyi81hbEgYLNAy4vHuxR4djQ7cVzrW1cZWg0ZFgIIIIAAAjsECD87LIx6VDjZ5sUiY0fAGIH2ZV/Lm+LiN7xtyz/5d+wZLJ5nVA1kMAgggAACCIwmQPgZTUX35/rrJO0iYxZ/DAQBawX6Vp2RN3WPHddnJoxz6XHJvQdIT4nulY/+I4AAAgggMKYA4WdMIg3fUPuStYtFBo6AMQJdr55aOH1vl9LOiGbrnj1Bw0pHlxFAAAEEEIhbgPATN5kGHwj81Zj1HwNBwE6B3lVn5N+x54iI4t6PHWuu1qCy0UUEEEAAAQSSFiD8JE2oWgNd+XYuFhk1AsYIdK08zbNrPrkTxgUmje/L5x/8qFbK6Q8CCCCAgCsChB9XWP1stPIpY5aADAQBCwX63j7Dy+STO2Fc6QOHDfa0+Fm12DYCCCCAAAJeCRB+vJL2bDtbbrBwvciQETBDoGXxVwo8vNtt2310jct/KuGwZyWKDSGAAAIIIOCjAOHHR3wXNt2WZsYSkFEgYJtAaN35tU99IXfiePf+Yc+oLQcm7dZbvMKFYkSTCCCAAAIIqChA+FFxVhLvU+ks25aMjBcB3QXC6y9oX/q1onv2HTWcuP1k6UNHiXDZJ/GiyycRQAABBPQSIPzoNV9RezvYIxmX674QpP8IWCUQfPfs2iePyJ3o1h/wGTM7Nb15Y9SywosIIIAAAggYJUD4MWg6m1ZZtWpksAhoLTDw3jm1c48cM5y4+obCuw8ItvK3TQ06CzAUBBBAAIGxBAg/Ywlp9HrhRK3XgnQeAUsEgu+e1bTg2OIZ+7sabGJpvOVN/ryPRiWeriKAAAIIOCBA+HEAUYkm+mplw4WWrB0ZJgI6Cgx+cF7HspMqHjrYx5vchieionv2DbdlK1G+6AQCCCCAAAJeCRB+vJJ2ezu1i3VcDtJnBGwQCH90QdvLJ5Y/8NnApN2Gxw9/Hze9/B23yxLtI4AAAgggoJoA4Ue1GUm0P7l/sWERyRgR0EhgcO257S+fWPnI5/On7uFvztl164XT9wlWrUy03PA5BBBAAAEEdBUg/Og6czv1uyug0YqQriJgtkD4owt63zq9cf7RpbMOyp3g9d/t2TXnjPpMy8pLd6oh/IAAAggggIAdAoQfI+a58kntVpPdr32985VTOpZ9bft/7Uu/1r50x4/xPt++7KT2ZSd1v/GN4Htny/oLtAOhw1oLDH5wXvfrX2+cf0zFw58ruHOvUfOGOk8WTNs71JplRO1jEAgggAACCMQnQPiJz0vRd2f/Rq+FY+jD8+ue+kLxPfsFJjn5e/H8qXsU37Nf2f0HVT5ySM2cI2rnHln31Bf4DwFXBWrmHln12KHlDx5cOG3vwEQn92f3wlLd4osULWV0CwEEEEAAAZcFCD8uA3vQfFuqXslHUlMG3j+n7P7PuLe2o2UEEIgkUDBt3/66DR5UJjaBAAIIIICAggKEHwUnJc4uldyrXfiR9SmN84+JtDjjeQQQcE+g+Y1fx1lieDsCCCCAAALmCBB+NJ/LwS7ZdLl+4Sc1Jfje2e4t72gZAQRGFcibsudgT5PmVY/uI4AAAgggkLgA4SdxOyU+2fiWjslnW5/LH/jsqOsznkQAAZcEGlZy2UeJyk0nEEAAAQT8EiD8+CXv0HYLJugbfrpWnqrU33x0ablJswgoIlDx+HGhYLdDpYdmEEAAAQQQ0FKA8KPltH3S6b5q2fA9fcNP6MPzKx7+nCLrQrqBgNkCBdP2Gah7T+d6R98RQAABBBBwQIDw4wCib03ULtY3+WzreceKk81ecTI6BFQQCEzarXPDRN8qFRtGAAEEEEBAGQHCjzJTkUBHcm/WPfyE16cU3rWPCqtD+oCAwQItb/wygQLDRxBAAAEEEDBPgPCj7Zx25uqefLb1v3H+0QYvOhkaAr4LVDx+nITD2lY6Oo4AAggggICTAoQfJzU9batyrhnhp2/VGQXT9/Z9gUgHEDBSoPSBQ4L1aZ6WJjaGAAIIIICAwgKEH4UnJ3rXtvzWjPAjqSl1zxxl5LqTQSHgt8D47pzHohcSXkUAAQQQQMAqAcKPntPdvtmY5COpKX3vnJk7cbzfy8RxdAABowQmjmt581o9Cxy9RgABBBBAwC0Bwo9bsu62W/GoSeFHUlNK7zvQqHXnBKIUAj4L1Dx/lrtViNYRQAABBBDQUIDwo+GkiUjWrw0LP62LTyD8IICAUwKlDx4R7mvSs7rRawQQQAABBFwUIPy4iOtW062phiUfSU0ZWHtu6Swu/vh8rcCplTft+CtQMuvzg00ZbtUf2kUAAQQQQEBnAcKPhrNXer954UdSU5oXHufvkpGtI2CAQMn9nw+1ZmlY1+gyAggggAACXggQfrxQdnIb4QHZfKWR4Sf47tm5E7n0gQACiQuUPXDoYMtmJwsObSGAAAIIIGCWAOFHt/lsft/I5LNtUDVzDjfgV+8MAQFfBMofPiLUtlW3ikZ/EUAAAQQQ8FSA8OMptwMbK77b4PDTt+rMorv28WXhyEYR0FpgKPl0BByoMDSBAAIIIICA0QKEH62md7BLMi4zOPxIakrDvC9rvQal8wh4L1D1+NHhjjytahmdRQABBBBAwB8Bwo8/7glutWmV2clHUlP63/kmf/DU+9UzW9RXoHz2F8KdBQmWFD6GAAIIIICAZQKEH60mvHCK8eFHUlOqHj9M35UoPUfAS4Gap08IdxVpVcXoLAIIIIAAAn4KEH781I9v28FmSb/EhvDT+9bpBdP28nIFybYQ0FGg+ulvSG9lfGWEdyOAAAIIIGC3AOFHn/lvWGlD8tk2xtqnvqDjYpQ+I+CZQP2yn0o4rE/9oqcIIIAAAggoIUD4UWIaYupEwb/tCT99q8/kX/54toxmQ3oJ5E3Zs2nVX0g+MZVN3oQAAggggMDOAoSfnT2U/amvVjZcaE/4kdSUav7lz4TE/9ilXqt5ehu7QNmjX+1r4Cutla3UdAwBBBBAQHUBwo/qM/RJ/+qWWpV8JDUl+O5ZRXfvG/uikHciYLZA0d0Htn80KTTQq0nNopsIIIAAAgioKED4UXFWRulT3m22hR9JTWl64Vizl7OMDoEYBWrmfXOwnW91G6U08hQCCCCAAAJxCRB+4uLy6c295RYmH0lNGfzg3MLpe8e4OuRtCBgpUP7oMZ2bZonw3QY+lV82iwACCCBglgDhR4f5rFloZ/iR1JS2l0/MnTDeyEUtg0IgukDelD0bVl4bDvboUKToIwIIIIAAAnoIEH50mKfcm60NP0N/8/TRz0dfI/IqAiYJBCaNL7nvkPrlvxzoqNahPNFHBBBAAAEEdBIg/Cg/W10FNicfSU3pefMbuRP53jMEzBcITNqt4pGj2tbeMtjdpHxhooMIIIAAAghoKUD4UX7aqudZHn5kfUr1E4eZ9Kt9xoLAcIG8qXtUzP58+5s/GayYr3w9ooMIIIAAAgjoLUD4UX7+cn5ve/hJTQm+f07BnXsNXy/yGAEDBAqm7VPz/FldGXeHe+qUr0R0EAEEEEAAARMECD9qz2LHFpLPNoHmRccbsNhlCHYKFNy5V8m9B1TOPqTmySMb5x/T/sp5Pem3DVS/JaEBtQsQvUMAAQQQQMA0AcKP2jNaMYfws00gtO78kpn727l0jj7qwKTd8qbsnjd59wD/KSCQN3n3vCm7F07ft+S+QyrnfKV+4bktKy/tWHtTX/Zdoaol0rpOuovVLjr0DgEEEEAAAZMFCD9qz272bwg/2wV63zo9wDcfTNjx7/5bUh8O9XeFQ4MSDoUH+8MDvfznu4CEghIeDIdDalcWeocAAggggIClAoQfhSe+beP2dT8PtglUPnJI9MsgVr3aW5Wu8O5L1xBAAAEEEEAAAeUECD/KTcmODpU9TOYZITDw3jlFd+1jVcKJMtjaV/4gocEdOwyPEEAAAQQQQAABBKIKEH6i8vj7YubVI5b+/Dj0Z3/e+EZg4m5RIoE9LxXMOLKHiz/+HqRsHQEEEEAAAQS0EiD8qDpdLeuIOpEEauYcYU/CiT7SujdvU3UPpl8IIIAAAggggIByAoQf5abkkw6VzIy09Of5vtVncvPbtlBUMPMoCXPnm6pHMf1CAAEEEEAAAcUECD+KTci27gx2S8ZPCTlRBDpWnBz9kog9r3YGliu5E9MpBBBAAAEEEEBAOQHCj3JTMtShplVR1v28tE2gcvbn7Ek4UUZaueCyUH+XkvsxnUIAAQQQQAABBNQSIPyoNR+f9KZwMglnTIH+d75ZeNfeUVKBJS8Fpu7XWfimkvsxnUIAAQQQQAABBNQSIPyoNR9DvelvkPTvj7n05w2SmtKx/KRc/uzphHGVC3+u3n5MjxBAAAEEEEAAAeUECD/KTYnUryDYxC5QOZs/ezouMGWfUF+7ersyPUIAAQQQQAABBNQSIPyoNR9Dvcn7e+xLf97Z/843S2bub8kdblGG2bLhEfV2ZXqEAAIIIIAAAgioJUD4UWs+pKecPBOvQPdrp3HzW/FDJwXbyhXbm+kOAggggAACCCCglgDhR635kJoX4l36835JTal96gtRropY8lLL+gcV25vpDgIIIIAAAgggoJYA4Uet+ZDcPxNmEhAIf/St8gcPtiTkRBpm2ZPnK7Y30x0EEEAAAQQQQEAtAcKPSvPRFUhg3c9HtgkMrj23YNpekYKBDc8Hpuzd37BVpR2aviCAAAIIIIAAAmoJEH5Umo/KuSSZZATaXj4xMHE3G3JOpDHWv3GLSFilfZq+IIAAAggggAACCgkQfhSaDMm+PpmlP5+V1JSGeV+KFAxseL7gnsP7mwtV2qfpCwIIIIAAAgggoJAA4UeZyWjbSHpJXmDwg/OK7trHhpwTaYxNH8xQZp+mIwgggAACCCCAgFoChB9l5qPsoeSX/rQgqSndb3wjf+oekbKB8c8XzjpOwoPK7NZ0BAEEEEAAAQQQUEiA8KPIZIQk8yqii1MCzQuPMz7kRBlgZ2CFIrs13UAAAQQQQAABBJQSIPyoMR0ta51a99PONoG6p78YJR6Y/VL5sxeFB3rV2LPpBQIIIIAAAgggoJAA4UeNySi+i9DiuEDVY4eaHXKijK4z71U19mx6gQACCCCAAAIIKCRA+FFgMgY6JONSx5f+6cSb4wAAIABJREFUNBj68FvFM/aPkhAMfqn86e8psGfTBQQQQAABBBBAQC0Bwo8C89H4JkHFJYG+VWcUTtvb4JATaWh5dxww0FmnwM5NFxBAAAEEEEAAAYUECD8KTEbBRJeW/jQrqSkdy0+KlBDMfr7xvTsU2LnpAgIIIIAAAgggoJAA4cfvyeivkw3/SUpxVaD+2aNyJ44zO+rsOrqCGUcOtFf5vX+zfQQQQAABBBBAQCEBwo/fk1G31NV1P41vE6h+/LBd44Hxz7RmPO33/s32EUAAAQQQQAABhQQIP35PRt6t5BMPBAbePbt01oHGp50RA6x4/od+799sHwEEEEAAAQQQUEiA8OPrZPSUeLDuZxPbBILvnp1/x54j4oHZP+ZN3b+vdrOvuzgbRwABBBBAAAEEFBIg/Pg6GdXzSSZeCnSuODlvyu5mB54Ro6te+htfd3E2jgACCCCAAAIIKCRA+PF1MnL+4OXSn21JakrnK6fkThg/IiEY/GNgyr6D3U2+7uVsHAEEEEAAAQQQUEWA8OPfTHTkkEZ8EWhd8tXApN0MDjwjhta0bqZ/ezlbRgABBBBAAAEEFBIg/Pg3GZVzfFn6s1FJTWl76cQRCcHgH4sePDEU7PZvR2fLCCCAAAIIIICAKgKEH/9mIvs6coiPAs2LjsudaMf9b5P2aM9Z7N+OzpYRQAABBBBAAAFVBAg/Ps1EW5qP6342vU2gedHxBl/wGT608mcvCodDPu3rbBYBBBBAAAEEEFBFgPDj00yUPUACUUGgeaEd138mju+t3ujTvs5mEUAAAQQQQAABVQQIP77MREg2/1KFpT99kNSUofwzYZzx/9W/9Xdf9nU2igACCCCAAAIIqCNA+PFjLlrWkTqUEmh8/ujciYbnn+KHvjbY1eDH7s42EUAAAQQQQAABVQQIP37MRMlMpZb+dEZSU+rnfcnwiz8Txze+O8WP3Z1tIoAAAm4IhGWwS/obpKdcOgPSvkla1knj21K/QmoWStXTUjZbSmZK4RTJ+4fk3ix5t0nB7VI0VUrukbIHpOKxoffULJDaJVL/ijS+Jc3vSev6oXY6c6S7UHorpL9eBtok1CsSdmMAtIkAAr4IEH48Zw/1yqafkTcUFKh/1vD8U3jf0XzntecHPBtEAIGEBPobpCNHmtdI7YtS9rAUTJStf5bsG2TzVZJxmaRd7PVJZOOPh7ae93cpmSFVz0rDSmndID0lMtCZ0PD4EAII+CZA+PGcvvldr0t2agpbjFGg/pmjzL7+012yxvM9ng0igAACEQRGSTg36ff7wbSLJesayf2LFN0pFU9I3VJpXitdeRJsijBsnkYAAT8FCD+e6xdPj3Ehztt8EWhacGxgkrF//6f65Ws93+PZIAIIICBDN5LVv/LpNRwNE06Cv0b8tmy+QnJukuLpQzfjta6Xvjr2BgQQ8FeA8OOt/2CnbPyJL2t6Nhq7QMviE0zNPwX3HN5TlebtTs/WEEDASoHeKmlaPZR2tv5JNnwv9gps/jvT/+vjOHT30B19bWlD/2yJ/yGAgIcChB8PsUWG/i1mgr894tY1TwV63viP4rv3M/IWuNpX/+jtTs/WEEDADoFgi7R8KJVPSeBW2fgjTnZxCKT/QLb+cejrGWqXSNtGCTbbsccwSgT8ESD8eOteOCWOakhM8lWg9+3Ti2cYmH/yp312sK/d2/2erSGAgIkCoT5p3zx0N1fBRNl0BWc3JwU2/mjoCx5K7hv6F0Ttm0zcexgTAr4JEH48pA82y8YfOFkcfc0GNgwk9MF5lY8cYt71n5a0xz3c79kUAggYJNBdLHXLpfhuybrWhrOAMmP8tuT+VarnS1euQTsTQ0HAHwHCj4fuDa8pU0Y9vYVM61EPfnBezZNHBiYa9RUIZXO/Hept83DXZ1MIIKCzQKhXWj8cuilr08+1rueGdD79+5L/z6Eb5LrydN6r6DsCvgkQfjykL/i3IZXXvitOzYuOz504zphLQIEpe7dlveDhrs+mEEBAQ4GekqEVduBvnLnUFdj4EymYNHRrXHehhnsYXUbAHwHCj1fu/fWS9p/qFlD78ky8c9Gx7KSCO/Y0Jv9UzPu+V7s+20EAAX0EQj1DX1pQ9vDQH67hvKCXwOYrpXia1K+Q7iJ9djh6ioAPAoQfr9Drl3Mi0V2g+/WvG5N/ApP3HOio9mrvZzsIIKC2QE+x1L4kBbfzndS6n6c+6X/WNVJytzS8Kj0lau959A4BHwQIP16h5/3DkJKq12/CnO7twNpzyx862IzrP00fzvJq72c7CCCgnsBgl7R8MHSRJ/t6Tk8mC2y5USrnSke2ersgPULAHwHCjyfuvVWy4Tsm11anM4biVrVPHmlA/il+5BvBtgpPDgA2ggACygj01Urdy5L//ySdbx+17Lt/sm+Q8sekgy/OVuZgpCM+CRB+PIGvW6L4ap7uxSewPqV18QkF0/bSOwJNHN/04X2eHABsBAEE/BYY7JLGt4b+IA//+tSy39aNcnbLvlbKZ0tbmt87JdtHwB8Bwo8n7oFbRqk+1F/NBfrePqP4Hr3/CmrJo2d4cgCwEQQQ8E+g9UMpniEZl3EaQmCkQOavpPR+af1IwoP+7aBsGQGvBQg/7ov3lI4sN5ov+hnOdoHg++fUzj1S52/BHt9TucH9Y4AtIICA5wIdWVL+KF/atr1c8yCawOYrh/6OU/P7Eur1fE9lgwh4LUD4cV+85oVoFYcgpLlAeH1K04Jj86bsruktcDXLbgiHBtw/DNgCAgh4ItBTItXPS85NnHcQSERg0+VSfJc0r5HBLk/2VzaCgA8ChB/30bf+byIFSPNIYNuQ+1efWXrfgTrmn/y7Dumt4s5v9+sAW0DAVYH+BqlfJoFbbau9jNctgYyfSNEdQylIQq7uuTSOgPcChB+XzbsK3CpMpCPFBAbeP6fykUN0zD91r/+fy4cBzSOAgDsCgz3StEoKJ0v6xZxrEHBFIPNqqXhCuvLc2YNpFQEfBAg/LqNXP+dKMVJs3c8YPxW4oOmFY/Om7KFXBMqf/rnwAPd5u1wKaB4BZwXaUqXkXtn0s0+Lj2Xf2sxJ0HuBvNukYaUMdDi7I9MaAt4LEH5cNufGa+8LtN9b7Fhxsnbfgt2+ZbHLRwLNI4CAEwLhoNSvlNybyTwI+COw6adSOkvaM5zYm2kDAX8ECD9uundu9ac2+b36Z9SDa8+tn/elvMnafAtC2dPfDfW2unkw0DYCCCQn0F8vVc9J1q8psAgoIZDzR6l5Ufrrktut+TQCPggQftxEr5yrRIUiC/kisD6le+VpxTP21+UWuPYtL7p5MNA2AggkKtAVkLIHJf2HnFAQUE4g7WIpulNa1iW6c/M5BHwQIPy4ib7lt8rVKV9igNUbvaD1pa8W6fC3UCsXXOrmwUDbCCAQv0DrR1I4ifMIAhoIZP9Gqp6RnpL493I+gYDXAoQf18TbMzWoVlbHEu/+fXBwzVn1zx6l+F1wedM+O9jJDQyuFQQaRiB2Af5hD+cmfQUKbpemtyXUF/v+zjsR8FiA8OMaeMXjhB8EhgsE15xV9eihgYnjlb0Rrmnt3a4dDzSMAAIxCPAPe/Rd9NPz4QKbfyGVT0l/Qww7PW9BwGsBwo9r4tnXDV/48hgBSU0Jf/SttpdOVPbPoRbNOjbYWuraIUHDCCAQWYB/2DN86cxjMwQyLpWKOdJXE3m/5xUEfBAg/LiD3p7OWh+BSALh9Re0Ljmh4I49FbwE1PzR/e4cErSKAAIRBPiHPWYs9BlFJIH0H0r5o9JbGeEA4GkEvBYg/LgjXvZQpIUvzyOwTaB/9TerHz8sMHk3pSJQ6RPnuHNI0CoCCOwiwF/sibRc5nnzBNL/S8oelh5uLtilDvCE5wKEH3fIM3/FEh+BWAT63j6j/KGDVco/43sqPnLnqKBVBBD4VKDpbdl6UywlgvcgYJTAhv+Usgeku+jTI4H/R8AHAcKPC+it640qVeb9/kmxEYXXX9D5yimlsw4KTFLiKlDV4l9JeNCFA4MmEUBApOUDCfyVcwQCVgts+K6U3CtdeVQEBHwRIPy4wF76gNVFTbFoodFc9K0+s+7pL+b7/W+BApP37G/Kd+HAoEkE7BZoz5CC2zWqSHQVAdcFSu6Rzq121wVG74MA4ccF9M1XuV4vCBjmCgTfO7vtpRMrHzkkf+oeft0OV/fG31w4MGgSAVsFOnOl6E7OCwggMLpA0TTpyLK1OjBuHwQIP06jc8+bubFk9Krt2niDa85qeO7LhdP39j4CFdz1ufBg0Oljg/YQsE+gp0xKZ3lcOtgcAloKFE2V9k321QhG7IMA4cdpdO55cy0MaFnNk9YIfXh+x4qTqx87rHD6Pt6loInj2re86PSxQXsI2CTQ3yAVj0v6f9lZuBg1AgkKFEyU9nSbKgVj9UGA8OM0Ove8Jb3cT7Bimr7dgXfPblpwbPE9+3kTgUofPSUc7HH68KA9BCwQGOiUqnmS8VNKGQIIJChQcLu0rregWDBEfwQIP466c8+b6QkkwTruHEv4o2/1rTqjedHxVY9+vnjGfnlTdncvC3UVvuHo4UFjCJguEA5J7RLJvNr3QkEHEDBBIO8f0ppqetVgfD4IEH4cReeeN+dW+SYUbpc1Btae277spNq5XyieuX9govNfk1298IeOHh40hoDRAg0rJfu3FC4EEHBYoHi6dBcaXTsYnNcChB9HxbnnzeXlvsMl1ZTehtdfMLj23O7Xv940/5iK2YcU3bVvYNL45K8IFdx1wEBbhaNHCI0hYKJA8xrJ/V+qEwIIuCWQdpFUPCEDLSaWD8bkgwDhxzl07nkzJUu4Vb698ulbdWbLi1+peuywwrv2yZ2QVAqqf+Vq544QWkLAOIG2VMn/h+4Vg/4joIdA5i+HbivlfwgkLUD4SZpwewPc8+bV4l6PMq2ARvijCwbeP6f3rTM6XzmledHxdU9/sfKRz5fed2DhtL0CE2MKRfl37jvQUbN9H+cBAgh8ItCRJYWTqUUIIOC1QM4fpHkNhQiBZAQIP8no7fxZ7nlTYLnvdRXWbcjhjy7oW3Vm5yuntLx4fMOzX6p69NCS+w4snL73x39QdZQ4FJg4vmfr4zvv6PyEgN0CvVVSMoNSgwACfgoU/Ju/i2p3IU5q9ISfpPh2fJh73nSLAX5WbaWs1qfIx/9t+1dDbS99tXH+MdVzDi+bdVDJzANK7j2gey13vu040Hlku0DtS7KJ77BOoX4ioIRA6SzprbK9KDH++AUIP/GbjfoJ7nlTakFPZ5IWCL57ds+bp3etPC304bek9cNR93qeRMAigY4sybtNiQVf0kc3o0DAHIGNPx76s1qhXotqEUNNWoDwkzThtga4543zscEC+f906DihGQQ0FBjslconJfXb5qwXDS5WDM1OgezrpOE1DYsLXfZHgPDjhDv3vNlZba0aNRd/nCgVtKGfQPN7soW/3sN9bgjoIBD4q7Su16/I0GPPBQg/TpBzz5tVMcDOwXLxx4lSQRs6CfRVS/HdXO1BAAHNBIqmSXeBTqWGvnouQPhxgpx73uzMA7aNmos/TlQL2tBDoG6pbPqZZms+2yoS40UgkkDahVLxuPQ36VFt6KXnAoSfpMm55y1S9eF5wwS4+JN0taABDQQ6tvB3S0l9CJggsOlKqV2sQc2hi54LEH6SJueeN8OW+AwnigAXf5IuGDSgrkCoTyrnSup3TFj2RTmKeQkBqwRy/1faM9QtO/TMDwHCT9Lq3PNmVRm1fLBc/Em6YNCAogIt78uW3xF7EEDATIGKORIKKlp86JbnAoSf5Mi5583yMGDh8Ln4k1zN4NPKCfTVSskMMxd8FhYohoxAJIGcm6Q1Vbn6Q4f8ECD8JKfOPW+RqgzPmyrAxZ/kagafVkugbpls+jnJBwEEbBEof0QGu9SqQvTGcwHCT3Lk3PNm6hKfcUUR4OJPcmWDTysh0LVV8v9py4IvyuHMSwjYJpB9g7SsVaIK0QmfBAg/ScBzz5ttFZPxbhPg4k8SZYOP+i8QHpDKp2XD90g+CCBgr0DZAxJs9b8c0QM/BAg/SahzzxthwFoBLv4kUTn4qJ8CLR/Ilv+xd8Fnbcli4AjsKpD139L0jp/liG37JED4SQKee952LSU8Y4kAF3+SqBx81DeBoW+yTuE/BBBAYIdAyUwJNvpWlNiwHwKEn0TVueeNNYTlAlz8SbR48DkfBHpK+dOlO1Z7ltcuho/ACIHNV0njGz7UJTbpkwDhJ1F47nkbUTv40TYBLv4kWjz4nNcCjW9JxuUs/RFAAIFoAsXTpK/a6+rE9vwQIPwkqs49b7at9RnvrgJc/Em0fvA5jwTCg1I+O9pyZ9e9mmcQQMBagc0/l/pXPKpObMY/AcJPQvbc82ZtZWTgwwW4+JNQ/eBDHgl0BST3ZpIPAgggEJ9A4WTpKfOoTLEZPwQIPwmpc8/b8BUwj20W4OJPQiWED7kuUL9CNv4gvhWPzQcyY0cAgeECGZdK3VLXyxQb8EmA8JMQPPe8Da8RPLZZgIs/CZUQPuSiwGCXlMwk9iCAAALJCuTfLt1FLhYrmvZJgPATPzz3vNm81mfsuwpw8Sf+KsIn3BJo3yQ5/Bkfvs4bAQQcEsi4VBrfdKte0a5PAoSf+OG5523X5S/P2CzAxZ/4qwifcEWg9kXZ8L1kf9dr87HM2BFAYFSB8kdcKVk06pMA4Sd+eO55G7U08KTNAlz8ib+Q8AknBYJNUnQnsQcBBBBwSyBwC7fAOVm0fW2L8BMnP/e82bzEZ+yRBLj4E2ch4e1OCrSul6xr3VrxRNrneR4BBGwT4BY4Jwu3n20RfuLU554324od441RgIs/cdYS3u6MQNU8Yg8CCCDgnQC3wDlTu/1shfATpz73vMW4FOZttglw8SfOWsLbkxXorZKC271b8dh2RDNeBBCIJMAtcMmWb58/T/iJZwK45y1SIeB5BFJThIs/8ZQT3puUQPMa2fwLkg8CCCDgjwC3wCVVwX3+MOEnngngnjeW+AhEEeDiTzzlhPcmLlDxhD/LnSg7Py8hgICFAtwCl3gd9/OThJ949LnnzcLSxpDjEuDiTzwVhffGLdBdLIG/kXwQQAABVQS4BS7uOu7/Bwg/Mc8B97zFtQjmzXYKcPEn5orCG+MWaEuVzVeqsuKx8wBn1AggsKsAt8DFXc19/gDhJ+YJ4J63XQ94nkFgVwEu/sRcVHhjHAL1KyT12yQfBBBAQFEBboGLo6D7/FbCT8wTwD1vuy5zeQaBXQW4+BNzUeGNsQpUzlV0ubPr/s8zCCBgrQC3wMVa031+H+EntgngnjdraxkDT0CAiz+x1RXeFZNA0XSSDwIIIKCHALfAxVTWfX4T4Se2CeCetwRWwHzEWgEu/sRWV3jXGAKDXRL4qx4rHmsPdgaOAAK7CnAL3BjF3eeXCT+xTQD3vO16bPMMAlEEuPgTW2nhXREFugKSeQ3JBwEEENBSIHCL9JRErG+84KsA4ScGfu55i7LG5SUERhXg4k8MpYW3RBRoWi1pF2u54hn1cOBJBBCwUGDzL6QtPWKV4wX/BAg/Mdhzz5uFNYshJy/AxZ8YqgtvGUWg+nliDwIIIGCCQNpF0vT2KFWOp3wVIPzEwM89b8mvg2nBQgEu/sRQXXjLSIHS+0xY8Vh4vDNkBBCIJFCzcGSh42dfBQg/Y/Fzz1ukg5nnERhTgIs/YxUYXt9JIP+fJB8EEEDAQIHyR3eqdfzgqwDhZyx+7nkbc4HLGxCIJMDFn7EKDK/vEMi+3sAVT6RDg+cRQMA2geJpO8odj3wVIPyMxc89b7aVJ8brrEDLurGOMV63XqC3SjJ+TPJBAAEEDBcI3GJ9uVcCgPATdRq4583ZdTCtWSiQ/4+oxxgvWi/Qmmr4csfCo54hI4BAJIHs66W/yfq67zMA4SfqBHDPW6Sjl+cRiF2Aiz9Ry4zVL9a9TPJBAAEE7BLIuFS6AlZXfr8HT/iJOgPc8xb7Apd3IhBJIO+2qIcZL9oqUPagXSueSAcIzyOAgIUCLe/bWvr9HzfhJ/IccM+bhcWIIbsk0Lw28pHGK1YKBG4l+SCAAAJWC9QusbL6+z9owk/kOeCeN5fWwTRroQAXfyJXGhtfyfyV1SseCysAQ0YAgVEF+ApsP06BhJ/I6tzzNuqBypMIJCbQzCX+yNXGoldCxB4EEEAAgR0CRVMsOgOoMVTCT4R54J63xBa4fAqBSAJ5t0Y42HjaGoFQ747zfaT9hOcRQAAB2wS2/sma04ASAyX8RJgG7nmzrfQwXg8E+PedEeqNFU8PdpJ8EEAAAQRGF8j8lRUnAjUGSfiJMA/c8+bBUphN2CbA33eLUG/MfzrYPPr53rZDgPEigAACkQTSL5HBXvNPBwqMkPAz2iRwz1ukI5PnEUhSoPnd0Q45njNaoL+e5IMAAgggEJNAb7nR5wMlBkf4GW0auOctyQUuH0cgkgAXf0YrOSY/11sV0/k+0g7D8wgggIBtAu2bTD4pKDA2ws9ok8A9b7YVGsbrpUDzmtGOOp4zUaCnlOSDAAIIIBC3QFu6iacEVcZE+NllJrjnzct1MNuyUCD3/3Y56njCRIGugrjP9xYeDgwZAQQQGFWgbYOJJwYlxkT42WUauOdt1IOQJxFwUICLP7sUHtOe6Mwh+SCAAAIIJCXQ+pFppwY1xkP42WUeuOfNwTUuTSEwqkDuX3Y58HjCIIGOzKTO96PuMzyJAAIIWCjQ8oFB5wZVhkL42Xkm2tI4ZyOAgBcCTat3Pvb4yRQBqqiF6zOGjAAC7gnwJ/KcPj0SfnYWLZvtxbLPvSOElhHQRYCLPzvXHkN+av2IEooAAggg4LBAE18U5ORJkvCzs2b2tQ7vr7qsROknAt4LNK3a+fDjJ80Fmt+nfiKAAAIIuCLQ+LbmZwiFuk/4GTYZ7dynnuLKEev9qpotaiGw9X+HHX481FygaTXVAwEEEEDARYHGNzU/T6jSfcLPsJmoeNLFXVaLxSidRMBjAS7+DKtAGj9seIPiiQACCCDgukDDaxqfKZTpOuFn2FTk3Oj6XuvxypLNIaC4wNY/DzsCeainQP0rVE4EEEAAAY8EGl7V81ShUK8JP59ORmfAo71W8cUo3UPAY4HGtz49CPl/DQXqXqZyIoAAAgh4KlC/XMOzhUJdJvx8OhnV8zzdcT1eX7I5BJQV2PqnTw9C/l83gdpFlE0EEEAAAR8Eal/W7YShUH8JP59ORu6ffdh3lV2P0jEEvBTgH3F+Wod0+v/q56mZCCCAAAK+CdQu0emUoVJfCT8fz0Z3iW/7rpdLTLaFgJoCOX9UqSrSlxgEqp6mZiKAAAII+CxQszCGes1bRgoQfj4W4eYNNdfE9MoeAS7+jCzOCv/c9LbP53t7jgtGigACCEQXqFmg8NlC0a4Rfj6emMAtnMsRQMBPgZw/KFoj6dYIgc6tfu4n0RcBvIoAAghYKFD93Ig6zY/RBQg/In1VnMsRQMB/gYbXo1crXvVfoL/e//3EwpUNQ0YAAQSiC1Q94/8JQp8eEH5E6pZyOkcAAf8Ftt6kT+W0sqehXv93kuinf15FAAEErBWoXWzlmSmRQRN+RPL/xRkdAQSUEOBvVydSxr36zOarlNhJrF3ZMHAEEEAgukDrOq/OB3pvx/rwE2yUtIs4oyOAgBICOb/Xu6Aa3PvA35TYQ6Kf+HkVAQQQsFygu9jgE5FTQ7M+/DS8xhkdAQQUEuDij1PV3cF2SmcptIdYvrJh+AgggEB0gf4mB8u/kU1ZH34KJ3NSRwABhQRy/sfIUqvxoGoWKrR7RD/l8yoCCCCAQNqFEurX+KTjftftDj8D7bLxR5zXEUBALYH6V90vfWwhNoHG19XaN1jWIIAAAgiMKZB1TWwl3tJ32R1+mlZzXkcAAeUEcm60tB6rNuyWdcrtG2Oe8nkDAggggEBqiuTdptopRZ3+2B1+iu/i1I4AAioK1L+iTpW0tCcdWSruGKxpEEAAAQRiFCidZen5a6xhWxx+Qn2ScTlndwQQUFFgy+/Gql287qZAT6mkX6LijhHjKZ+3IYAAAgikpkjNQjdPFbq2bXH4afmAUzsCCKgrUL9C17Kqe7+DzbLld+ruGCxoEEAAAQRiF2hYqftJyfH+Wxx++PLW2I8c3omA9wJbbpBwyPGSR4NjCISDQ3eKez/dbBEBBBBAwCWBlvfHqPyWvWxx+OGvlbt0jNEsAk4J1C21rCArMNzCqSQfBBBAAAHTBNoyFDjBqNIFW8NPW5ppu7VTy03aQUAdgezfSCioSrG0oR+lD1AYEUAAAQQMFNjwHekqsOE8FssYbQ0/ZbMN3LPVWbPSEwScEqh9KZZCxnscEKh8iqqIAAIIIGCsQOZV0lfrwMlC/yZsDT/Z1xq7czu16KQdBFQQyLpWwvylavdPNc1rKIkIIIAAAoYL5N4sg13un1FU34KV4ac90/CdW4U1K31AwCmB2iWq11Hd+9ddLJt+RlVEAAEEEDBfIP923U9ZyfffyvBT8aT5O7dT607aQcB3gcxrJNSbfLGjhQgCIQn8lZKIAAIIIGCLQPHdEU4HtjxtZfjJudGW/dv3ZSsdQMARgdpFtpRk78fJlxw4sovSCAIIIKCRQPkj3p9t1NmifeGnM0DyQQABzQQyr+Y2ZVdOG/XLNdsTNFpb0FUEEEBAZYGaha6cVnRo1L7wUz2Pkz0CCOgnUPOCDhVVqz62b5YN/6nfnqDyYoK+IYAAAhoJtKVpddJyrLP2hZ/cP3OyRwAB/QQyr5KBDscqHw0NtMqW3+q3G2i0qqCrCCCAgOIC2ddJf5OF50PLwk93CSd7BBDQVaB6voU12q0hF07VdTdQfDFB9xBAAAGNBIqmunWWUbhdy8JP7SLO9wggoKvA5isl2KZwOdWna9XP6boPaLSkoKsIIICAFgI1C/Q5eznTU8vCT+AWTvkIIKCxQNU8Zyqfza2quifCAAAgAElEQVQ0v6/xDqDFSoJOIoAAAnoJtK636qxoU/jpq+KUjwACegts+rkEW6yq0Q4PtrdcNl+p9z6g15KC3iKAAALqC2RfK/0NDp9uFG7OpvBTt5RTPgIIaC9Q9azCFVX5ruXdpv0OoP4ygh4igAAC2gkUTlb+BOZYB20KP/n/4qyPAALaC2RcLkEbv53Ggapf/oj2s6/deoIOI4AAAroIVD/vwIlGhyasCT/BRkm7iBM/AgiYIFD5tA7VVbE+Nqw0Yep1WUPQTwQQQEBHgdaPFDt1udIda8JPw2uc+BFAwBCBoYs/za5URFMb7dgi6ZcYMvs6rifoMwIIIKCFQOY10l9v6plw+7isCT+FkznxI4CAOQJ87dv2Kj7mg8FOyfm9OVOvxQKCTiKAAAKaChROHPOsovsb7Ag/A+2y8Uec+xFAwByBTVfIAH/zJ7YTUNF0c+Zd08UE3UYAAQQ0Eqg2/K9K2BF+mlZz7kcAAdMErPmnmbFFnAjvql1i2rxrtICgqwgggICmAi3rIpxUTHjajvBTfBenfwQQME1g8y9koMOEMuzeGHqKueht2m6v6UKKbiOAgF4CmVdLX617Zyd/W7Yg/IT6JONyzn8IIGCgQPUCfwuo6lsv+LeBk67XAoLeIoAAApoKFExQ/RyXaP8sCD8tH3D6RwABMwUyr5LBrkSrn+mf4886a7rgoNsIIICAIgJVzxh5prQg/JTOMnPZp8iBQTcQ8FegZqGRpTnZQfWUS8allD4EEEAAAQSSEmhZm+z5SL3PWxB+Nl+V1Kz7u7Bj6wggEF0g8xoJ9apXWv3uUeEU6h4CCCCAAALJCmy+Svqq/T6lObx908NPW1qysx594cWrCCDgu0DtYofrou7N1b9C3UMAAQQQQMAZgfzbdT8rjui/6eGnbLYzE+/78o4OIIBAJIGs/5ZQ/4jSZu+PvVWy6WfUPQQQQAABBBwTqHvZpLOq6eEn+1rHJj7SwovnEUDAd4Hal0yqy0mNpWgaRQ8BBBBAAAEnBTIulZ6ypM5NKn3Y6PDTnunkxPu+vKMDCCAQSSD7OgkPqFRafepL4xsUPQQQQAABBJwXKJzi04nN+c0aHX4qnnR+7iOtvXgeAQT8Fahb6nyB1KvFvjrJ/CVFDwEEEEAAAVcE6lfqdVaM1Fujw0/Oja7Mvb8rPLaOAAKjCmRfLxKOVOmseL74bioeAggggAACbglsulL6aw04n5obfjoDbs39qAsvnkQAAd8F6lcYUJQTHELTKioeAggggAAC7gqU3J3gSUqlj5kbfqrnuTv9vq/z6AACCIwQ2PI7Sy/+BJsl6xoqHgIIIIAAAq4LNK1SKcgk0hdzw0/un12f/hELL35EAAHfBeqXJ1IIdf9M6X2UOwQQQAABBLwQyPq1BFu0Pm0aGn66S7yYft/XeXQAAQRGCGy5QcKDWhfluDvftIZyhwACCCCAgHcCpffHfapS6QOGhp/aRd7tASPWXvyIAAL+Clj1tW8D7ZLFXzNLoeAjgAACCHgq0PKBSnEmvr4YGn4Ct3i6B/i71GPrCCAwXCDrWgkH4yuE+r677EFqHQIIIIAAAl4LbPmdDPZoevI0Mfz0VXm9BwxfePEYAQR8F6hdrGlFjq/bLeuodQgggAACCPgjUPFYfOcsZd5tYvipW+rPTuD7go8OIIDANoGsX0uoT5ky61pHcv9CrUMAAQQQQMA3gbY0185wLjZsYvjJ/5dvOwFLTwQQUESgZpGLhVOFpuuXU+gQQAABBBDwU2Drn3T8CxPGhZ9go6Rd5Od+oMjKj24gYLlA5tUy2KVCSHGlD0Pfc8Af9uF7DhBAAAEE/BaofMqV05ybjRoXfhpeI/kggAACQwI1L7hZPH1tu3IuU4wAAggggIACAt+Wjixfz4hxb9y48FM4WYH9wO8Ubvmv/Bk+AtsEMq+SgY64i6L6H+gulrTvU+gQQAABBBBQQiBwi/pnzuE9NCv8DHTIxh8psR+w+kQAARUEqucPr3eGPC65myqHAAIIIICAQgLVCzQ6w5oVfprfU2g/UGHlRx8QsFxg0xUy0KZRRR67q21pVDkEEEAAAQTUEkj/vnTljX0KU+MdZoWf0llq7QqWrzsZPgIqCFQ/p0axdagXebdR5RBAAAEEEFBOIP9fDp3nXG/GrPDD1x+psNakDwgoJbDpZxJscb2UerOBhteVO9spNdd0BgEEEEDAR4Gm1d6cDJPcikHhpyOLZQECCCAwikDl00kWSiU+/v/buw94KaqD7+N7qQI2RLFr7F0UpHN9kvj6xkQTn+RJnpgnT3p5kidvkiftiYm5hd4EBEEQREFFRVBEERSQdoFL72y5vffe2+55Pzcm19vvlpk558z8/PjRvbuzM+d8z+yZ85+dPeOvF2d+2E3tJB7n2DQCCCCAAAJtAud+ocThsq9C2Cj85LzCsAABBBDoRuD4v4rGor46Q+Vfz321m6q1HXJ4gAACCCCAgHSB/A3KH02FjcKP+9eMDBBAAIHuBbJfUr877q2E9Tni2BPdV036oY4CIIAAAggg8KnAyW+L5vLeDmcKvGaX8NOQw7AAAQQQ6FHg+NdEY4ECXW64RUhf1GPVOOIigAACCCCgjkDWqnAPdRa9zy7hp3AzIwMEEECgN4GsFy3qVg3fTNWp3uqlzgGPkiCAAAIIIHD0S6I2zfAjoYErtEv4SYplcIAAAgj0JnDscVGfa2Dvad2qfH/trV4caBFAAAEEEFBKIG2+dYfI0Ldki/DTUsvV8IyNEECgb4HM5aF3krLfUbKz73opdcyjMAgggAACCFSekH347HH7tgg/ZQkMDhBAAIG+BY49Juqze+wOVXzBL87+vO96cZRFAAEEEEBAKQHfX1U8qP69TLYIP+nPMThAAAEEghLIXKZsd9xNwfLfCqpSSh3wKAwCCCCAAAKHokXJrm6Oawo8ZYvwc/r7jA8QQACBoASOPCrqMxXoe4MoQlOpOPGNoCrFURYBBBBAAAHVBM79MohDnYRF9A8/1ecYHCCAAAIhCGQsltDXhrHJ3NdDqJRqxzzKgwACCCCAQP47YRz9zH6L/uEnZy3jAwQQQCAEgSOPKD4LZ2u/728Up78bQqU4xCKAAAIIIKCawKnviOYKs8NMqOvXP/y4f8v4AAEEEAhNIGNRqH2l1csXvBdajVQ74FEeBBBAAAEEDkWL7NVWH0D72p7m4achj/EBAgggELLA4c+L2uS+ukepr5/7RciV4iiLAAIIIICAagJHH1Ptp7aah5+iLYwPEEAAgXAE0p6VGm563Tj39lHt4E15EEAAAQTCFlDsgKt5+EmeGs6gJ+zG440IIGAfgYdFjbfXCCLvRe8f6dkQQAABBBCwj0DVKXnH1M5b1jn8+OvF8a/ZZ7ewz5gymkZBQA8Bxc5F/aN7Lj+khx5dFgIIIIAAAkEK+J7pHEHk/a1z+Ck/wBABAQQQCF/g8OdFXaq87reHLSfHh1+jIA9CLIYAAggggIDFAqW7ezjsWf20zuEn83mGCAgggEBEAqrd84cbl1l8MGZzCCCAAALWCJz/ldUpp4ft6Rx+zvwwokGPNS3NVhBAQGWBI4+KuoweukcZT6c/S7eGAAIIIICAPQUKP5BxZO28TW3DT43HnruFysNEyoaALQUyl3XuF2X9XZcpjjxCz4YAAggggIA9Bc7/t6wDbPvtaht+8tbZc7ew5eCSSiGgssDRL4v63PbdorTHWSvo1hBAAAEEELCzQOkuaQfZf25Y2/Dj+b2d9wyVR4qUDQH7CWSv/GeXKO//jcVMX0mvjgACCCBgcwHvn+QdaP+xZT3DT0OBOPQvNt857De+pEYIKCtw/GuisUhud5y37vPZy0aUvXVL4OBkOjcEEEAAAQRsK1B+WO4BV8/wU7TVtjuEsqNDCoaAfQUadz5Ue+TPEvvi5vJ0T1w/d4zLHeNKnjW48OVr67ePppdDAAEEEEDAhgLJ8RIPuEIIPcNPygwb7gr2HVnSWAgoK9C486HCNdelzh2SOu+ihtwEWd1xybYffpp82v6bPOuCwjXXN+wYE0jkrsEIIIAAAgjYS6D6nKwDrp7hx98kjn9d2bEUBUMAAS0EmveOL153U9KMQW15I/vlMQF/k/XdcXNVbur84W3FaP/AExeV++LIxk8e0oKUQiKAAAIIIBCUQNp864+2bVvU8Juf8sSgWPkiBQEEEOhOoGXfhOLXbvBNH9g+ZrQ+jnXVJr/f1jla9qBi/9OdS/L369/aP5n74sjmPePp+hBAAAEEELCDwJEvirp0y46znTakYfjJXGaHVu9uTEa9EEDAXIHEKWXrb02dO7R9rmj/OGfNuE5dpAV/Zq+8rX0ZenqctuCihu0PmutDv4QAAggggIA1ApkvWHCE7XYTGoafsz/h8I8AAgiEKtCyb0Lui1d64qJ6ShfuGJd36oDqc+u67StNerI++U3ftAG9FKn9S564fqVv3SL4FZA1B2a2ggACCCBgnsCxr8qaZ1W38FObFOqIh+URQACB+o8fTJ59Qfsg0dPjzBV3m5Rzul1t/ropPZWk++djXZmLhzfsHEObIoAAAgggoLdA7tpuj4xmP6lb+Ml/W+9mNi9As2YEEOhOIHBwcsm6m0L6dsWyX/74Gyp90wd3H3K6/Oyn/WLJMwfXbr2fzhABBBBAAAGNBU49Jfx1ZkedruvXLfz4/qJxG3c3MqM6CCBgnkDT7rG5L450x7bePyf4fzOW3yH8zV27S8OfqTo6I/hSdVrSExdV/f495tGxZgQQQAABBEwXyN9o+LG1zxVqFX6aq8TRx0xvBiIKAgjYQqD+4wdT5/U4t0GnLNHpz7qUD/rsPSNcwN9Yk7Xyzk7bDelPT1xUxcbb6RIRQAABBBDQVeDsTyI8mIbxdq3CT+leXZvWFkNJ8BHQSKB68z2e2N7mNug9ZmSvflAE/GF0qcG/pcazofcyBPOqJ9ZVvoH8Y697/3G8QAABBBwlULwt+EOnIUtqFX4yFms09qKoCCAgS6Dmg3u98f2DCQ89LeON71d1epUhnWxPK8l745Geth7S855YV9nbt8miZrsIIIAAAghEJOD+TU8HSpOe1yr8nPlhRLiOitFUFgGnCtRtG5U0Y1BI+aHbhbNW3i1EwKSet6W2OGXe8G63G86Tsa7SN29mCmwOEAgggAACWgqUJZh0tO12tfqEnxqfls3p1AEojYWAFIHGXWMNST7uGJcntl/16Re77Tcjf7L84DR3BFfldROQWvPPTeQfKXsdG0UAAQQQiEggKTbyA2vwa9An/OS9FRErIQQBBOwu0PjJQylzhnQTDEKZ6q3929OX3BAwZ9q3zBV3td+QUY+LXr2BfhIBBBBAAAHNBA5/XtRnB59eIlxSn/Dj/bNmDWn3gSbNgYBSAi37JmQuMe5Csn/mpVr3qxF2sl3f3lJb4p06wKjA02E9rfMf8Psf5j9AAAEEENBNIPf1rodLk57RJPw0V4gjX1JqpEVhEEBAKYG8lVd1iAH/TC8RPpm16u5Ac72x/W9l4rQIS9XL2z2xUXXbHlCqaSgMAggggAACfQic+5mxh9pe1qZJ+Cnd0wcZX7MggICDBSreucMb36+XSBDJS1UnlvTSh4b6kr+xOmulKde8tdUxbcFFLfsm0GcigAACCCCgk0DF4VAPqeEtr0n4SV+kU+M5eAxKMyFgvUDLvglGTXLQlh/aP8hcfruBX/405Cb6pg1sv34zHuetvNL6hmCLCCCAAAIIhC+QNj+8MBPquzQJP2d+ED4lUQQBBOwrEDg4OWfFSDPyw2frjI2qPDQ31L61p+VLPvrxZ2s26Nq8riv0xEVVvHMH3SYCCCCAAALaCBx7XDSV9XT0NPB5HcJPjVebZrPvEJMmQEBNgbK3b+069Df8mbQFI42Z9s3fnL7kWsOL1+0KvfH9m3aPU7PVKBUCCCCAAALdCBRsMjDk9LQqHcJPPpNc6zZlByEQAUsEDJ/butsU8fd7/riqDhlwF4K65Hd8002/5q2tFllLhrckTOzm6GJJ67BdBBBAAAEEQhPw/K6nxGLg8zqEHx+TXBN+EECgG4HspSPaBvpmP0iZd0lLXWmEnW/Bxq+YXc5O689beVVoBx5yEQIIIIAAAhIFqs9FeKjt8+3Kh5/mCnH0/3LwRgABBDoJVG66s9NA3+w/i9//Zp9dau8LpMy7xOxCdl1/3bZRnej4EwEEEEAAAUUFMl/o/Uga+avKh5/S3Yq2jcRMzKYRcLxA466HUuYM6TrQN/WZ5DlDG7N3ht3t1nnXmFq8nlaevuAikdjN92Z0rQgggAACCCgncPLbwt8U9qE2mDcqH37SFyrXKo4fd9IiCEgXKHjZomkDOiWKvLUPBdOxdl0m0FyfbfLtfToVtf2flZvulN5kFAABBBBAAIGgBEp2dD2MGviM8uHn9PeDYiKQIICAYwRqttzrm9q//eDessee2KiG5NfD6IKr91kxw3VPDsmzBjfsGE1figACCCCAgAYCSX8L4zgb/FvUDj81Hg1ayDEjTtoCATUEpqTMtvqCt/ahImPpdYGWxuA7WSFEc+Yb1l+k177M7hhXzguXq9F8XICHAAIIIIBA7wIPi/rMkI6zIS2sdvjJe4OjNQIIINBeoGy9FTf26ZQcOv1ZmfD74PvZQPHOnBeu6LQG6//0xver/fC+9pI8RgABBBBAQFGBnLXBH2dDXVLt8OP9k6JNwrc9CCAgQ6BpzzivpAve2scV34zB9Vl7g+ptS/dWbLzdHetq/3ZZj1PmDg0cnEynigACCCCAgOoCZ38S1EE2rIUUDj9NZeLIo6q3jYzxHyYIOFYgd8VIWcmh03aT51zcUNjXvQjq0qo2P+CNl/PzpE4F/vTPknU3OXbnoeIIIIAAAjoJlB8KK9r0/SaFw0/JLp1aiBSEAAImC5S/fZsnLqrbMb2UJ5PnXNJQcLqnXtbfVFe+aUzSzEFSytbTRpNnDa7f/iBdKwIIIIAAAqoLmHbDH4XDT/oC1VvF5KEe1UcAgTYB//5JKXNlznPQbZzwzRhafmyVEIFOEcjfWFP0xoMqXKHXtdg5y69oU+UBAggggAACigqc+1mnY6tRfyocfk7/p6KNQeZBAAHLBQrXXNd1HK/CM564/kUf/ybQ3PBZp1x9rmzjfekLLvLE9VOhhJ3K4ImNqn7/HnpXBBBAAAEEVBeoTf7s2GrcI1XDT/V51dvD8sEfIAg4VqBhx2hPrEIXvLljXJ64fmnzh+WuGFnx7h0t+yaIzGWibL8o3CSyV4tD0f4Dk+q3P1j9/j1Fa69XMAWlzB7iT5jo2N2JiiOAAAII6CGQt964yPPZmlQNP7mv69EqRCAEEDBZwL9/UtbSyzp9fSH3z8zFl1ZtvjvImdMCiZMrN92VsfBiReZ8+5Su7K2b6WMRQAABBBBQWsD39GeRxbhHqoYfzx+VbgyTR3vUHQEE2gRK37pFndiQtXRE484xbWUL6UHdRw+kL7hIbmxr23rSzEEN20eHVH4WRgABBBBAwFKBI48Kf51xqecfa1Iy/DSViiOPWIpLmEEAASUFGneNTZmjxDwH3vj+5RtuC/Lbnp66r+Z9E/JeulqRLJf1/GU9lZPnEUAAAQQQUEKg5BNnhJ9SJrmOVmKHU3I0jIyjBLKXjmj7skLig6QZg2o/vN8o+ZJ1NymRf2JdzHxgVJuyHgQQQAABUwTS5jsj/KQ/ZwofQ3kEENBKoPr9eyQGnrZNJ00f2LRrrLGdkiLX8iXPGtzCzAdafSiM3Q9ZGwIIIKC6wKmnnBF+zv5E9ZbgYIkAAiYL+PdPSlPgFzKe2KiaLfea0SPlrbyqLV9JfFD8+o1m1I51IoAAAgggYIxAjdfY/KPeb37qMoyRMnlkRiERQMBUgdbvRmJc0v+teOcOk6rZvHd86rxh0ivomzbApHRnkhurRQABBBBwlkDOWruHn6ItzmpRQhoCCHQRqPvoAd/0gdKDQdZSc6cEqNs2yh0j//5FybMuoNdFAAEEEEBAUYHzv7J7+EmZpSh9l/EZ5UQAAZMEspYMl558fNMGhD2rdfAseauUuPitYuPtwZeZJRFAAAEEELBUoLnawPyj3mVvp75jqSaRBgEEFBOoeu9uFb4PKVp7gwV9UUvCxNS5Q6UnvaSZg/z7J1lQXzaBAAIIIIBAyAIlO+wbfmq8IXMoNm6j/AggEIlA874JSTMHSQ8Dmc9datk0aFXv3SW9vu4YV8HL10bScLwXAQQQQAABswRSZtg3/OS/bZYaGQkBBHQQKFh9jQpJoHbrKMv6Iv+ByTkvXCG91t5pA6o/MGVeO8sk2RACCCCAgD0Fjj1h3/CT9Dd7tpkOg07kEZAuULPlPt+0AdJjQO6KkSLR0hsNN2wfrcJtT7OWDA9YW3HpuxwFQAABBBDQQ6DabVT+Uew3P8ef1KMBCDMIIGCCQObiS6UnH9/0gS37JljfERWuuU563d0xrvL1t1pfd7aIAAIIIIBAHwLZq+0YfipP9VFtEwZbbBEBBBQRKH/7NhVG/2Vv3yYFpCVhYtqzF0kX8E0b0LR7rBQBNooAAggggECPAt4/2TH85KzpscLEHgQQsLVA066x3vj+0of+2UtHSJz0rPKdOzyx8m/7U7D6GnFoCr0xAggggAACCgkcN+xnPypd9ub5vULEth5o4oyAYgJT8hWY58AT169um3XzHHRtgkDi5JzlCsx8EN+vZst9XYvHMwgggAACCMgUaMg15MsfZcKPv0kcfVQmKGkHAQQkCdR8cK8nrp/0r30K114vvQtq2jPeO1X+N2DpCy+WTkEBEEAAAQQQ6CBQstNe4afiUIfqSRqEUQYEELBYwH9gcuo8+Xf5TJk7xH9gssV173ZzhWuul54D3TGukjdu6rZ4PIkAAggggIAcgYzn7RV+Ml+Q40jKQgABqQIqzHLmietXsfF2Rbog//5JKqRB79T+TbvHKWJCMRBAAAEEEBDn/9te4efcL2hUBBBwmkDjJ2O8ClzwlvX8ZUrJV757pwpf/hSsviaQyMwHlt7xSan9kMIggAACagkc/oKNwk9LtVq4Uk+EQ4GAQwQCBydnL7tc+ijfN21A4ycPqWWeOCX/pauly7hjXVXv3a2WDJ0zAggggICTBWqTI88/akx4ULaX4ysCCDhNoGz9rfLH9zGu8g1ybuzTe3M37xnviZc/CUTqvKGK/BSqdy5eRQABBBBwhEDhZruEn/SFjmgwJyd16o5AR4GmPeNT5gyRHn5S5g4NHFT0yq7i126U7uOOcRW9egP9MwIIIIAAAkoIpM2xS/g5/X0lQDsOzigSAgiYJ5C38krpI3tPXL+q9+8xr44RrjlwcEr6sxdKV/LG92vZNyHCuvB2BBBAAAEEDBA48wNbhJ+mYgMsyC0IIKCPQN1HD3jioqQP6/NXX6N451Oz5T5PrHyo3BUjxSFFvx9TvAUpHgIIIICAwQL+hgjzjwK/+Sn+yGAUfYaAVBwBBwq0JExMX3Cx9OSTMmdI466xqvsnTilYfY10K09cVMU7d6huRc+PAAIIIOAEgcqT+oef1FkcUxFAwDkCpW/eLH00745xVb57pxbmTbvH+aYNkC6WtuBC/4FJWohRSAQQQAABOwvkvaF/+Dn5LTu3kBMiOHVEIGiBhu2jU2ZfIH0on77wYo3uYFP61i3uWJd0tKK119NXI4AAAgggIFkgKUbz8FOfLVkw6EEb5UQAgcgFspaOkD6I900bUP/xg5HXxbo1JEZnLRku3c0TF9WwY7R1taZzRgABBBBAoKvAyW9pHn4KN3MoRQABhwjUfHCv9BG8O8al/jwHXfeHmi33qXDxW87yKwIHJ3ctHs8ggAACCCBgnUBTWST5R/aEB8lx1kl1zY48gwACVgm0JExU4YK3tPkXNu0ep2O3U7jmevnRMTaq6r27ddSjzAgggAAC9hEoP6Rz+Dn2uH1awqpBJGIIaCcQSIwuef1z8sfuMa5qhW/s03uztiRMTJo+ULph6rxh/gN8+RPde2PxKgIIIICAiQIF72kbfmqTTXQhiiCAgDICtVvv98b3kz5wz3r+MpGo8bC1YuPtKtwfqWD1tXTdCCCAAAIISBPIWqFt+MnfIE1NmUEhAgjYXyAxOn2h/Bv7+KYNaNbzgrf2e4gKMx+4Y6PqmfmAgwgCCCCAgCyB5Hhtw0/SM+0P6jxGAAFbCpStv9UTGyX5a59YV9HaG2zAW/Phfd6p8m/7k/3C5cx8YIPdiSoggAACWgqc+4W24efoV7QUlxVz2S4CGgr4Eyb6FPilSuZzl9pmsF6sxq+nyt6+jQ4cAQQQQAABCQLHn9Qz/NSmSMDScOyIEgIaCyROyX/pasnf+cS43DFRddtGaczYseMKHJySNGuwdFXftIEtCRNto0pFEEAAAQR0EvA3hp1/5E11nb9RJ+KOgw9KjgACwQhUbrrTEyd/noO/39hnSjAF1mWZyk13uWNd0vOPjndM0qWJKScCCCCAQG8CdZkahp+kv/VWJcIGAghoLuBPmKjIPAct+ybYr7fJXHyp9PDjievX+MkY+9lSIwQQQAAB1QUiuNWPvG9+jj+hOqvmQ094EZArUPTqDdJH5+7YqLL1t8p1MGnr9dtHq3Dbn6wlw/0HJplUR1aLAAIIIIBA9wIR3OpHUvipTe2+JuQNBBCwhUDTrrGeWPkXvOW8cLlItNUFb+17zpI3blIgXrpK37y5fal4jAACCCCAgOkCEdzqR1L4KXjXdBRbjCBRQkBHgcDByTkrRkofl/umD7TTPAdd94SWfRNSZl8g3Tl17pDmveO7Fo9nEEAAAQQQMEsgglv9SAo/SbFmWZB5EEBAtkDle3dJH5G7Y1wlr3/O9v1MK7UCMx/krbrK9tRUEAEEEEBAIYEIbvUjKfwc/5pCfLJHilAgYCeBln0TUucNkx5+kmdd4D842U6wPdUlV4Ev2dwxrrqPH+iphDyPAAIIIMY7LNcAACAASURBVICAwQIR3OpHRvipyzC4/qQXBBBQRkCFG/t44vpVvneXQ/qZ+u2jkxW47U/mkuF+bvujzMfQITs/1UQAAUcLhHurHxnhp2CTo5uKoyMC9hVo2DnGGy9/noPsF0Y4qpMpef1z0r9qc8e4St+6xVHsVBYBBBBAQKZAuLf6kRF+kuNkStl33IkqAnIFAolTMp+7RPooPGnmoIYdo+VSWLx1//5JqXOHSpdPnjW4ac84i+vO5hBAAAEEHCoQ7q1+ZISf4086tJHIXQjYWqB8/a3Sx9/uGFeZI79/qP7gXk98f+n+rXOL23onp3YIIIAAAqoIhHurH8vDT32mKmQcoRFAwDgBRX55kjpvmGN/eZL74pXSw0/rzAcfMfNBNIc5BBBAAAHTBbJfEmH9Y3n4KXzfdAvjxnMUFQEEghTIXX6F/JF3rKNH3o07x6TMGSK9FTKeu9S/f1KQuw2LIYAAAgggEKZAxtKwso+wPPwkTw2zhkQaBBBQVaD6/Xs8cfLnOchfdbXDu5fKd+6QHn5a77C07iaHNwTVRwABBBAwXSD9WU3Cz/Gvm26h6gCRiiNgSwF/wkQVvnBImz+saTe/to9Om3+h9PzjmzagYccYW+7tVAoBBBBAQBWBlBk6hJ/6bFW8CEgIIGCQQMm6m6SPtt0xroqNt9O9iEPRdR89oMK3cNnPX0ZzIIAAAgggYKKA7xkdwk/RByYSGDSSo4QIIBC8QP320UnTB0oPP1lLRwQSJwdfbHsvmfviSOkt4o511W65z97O1A4BBBBAQKaA9486hJ+U6TKNSEcIIGC0QPayEdLH2d6pAxp3jaVvaRNo3DVWiQsRn72wZd+EtlLxAAEEEEAAASMFzv9Kh/Bz4htG1tnoYRxlQwCBkATK1t/qjnVJDj+xrsJXrgup2E5YuPLdOyW3S0zrjlG4hqZh2msEEEAAAXMEzvxE+fBTn+OEMQd1RMAhAi0JE5NmDJI+wk6ZO7QlYaJDzIOvpv/g5PSFF0tvnaTpA+s+5rY/5hz1Of2HAAIIOFzg9HeVDz9FW4I/crMkAggoLlC49nrpY2t3jKvqvbsUh5JVvIYdoz1xUdLbKHPxpbIE2C4CCCCAgJ0FTvyb8uEnZaadG8Dh4ZvqO0ygdst9nlj5A+u8lVcFEqfQsfQkULjmOunhpzWgvn9PTyXkeQQQQAABBMIUOPaE8uHn5LfCrJvDhpUoIaC4QODA5LT5w6SPqr1T+/N7+t53lebd41RoKW7B1Hsz8SoCCCCAQDgCRx5RO/w05IVTK2IPAgioJ1D8+udUmOegZN1N9Cp9Cigy80HR2uv7LCoLIIAAAgggEJpAwB9G/nGF8Z5w3lK0NbTKqDfgo/wIICAORTfvGe9T4MY+mc/xS5LgfkafOCVryXDpX9P5pg+s2zaKTxACCCCAAAJGCrTUhpFKrAo/aXONrCrRCAEE5AhMyVt5pfSRtDe+Xy0j6aB3gMZPHlLhRrQZz10iDvEDreAia9CNy4EVAQQQcLRAU6nC4efMDxzdNhzJELCFQNV7d0tPPv+4e0wig8gQBBSZ+aDynTs4ECCAAAIIIGCYQH2OquHHX2dYJW0xgkQDAR0FWvaOV+HWMb7pA5v3jNcRUGKZm/eMT5t/ofTgmjL7AtpO4m7AphFAAAG7CdSmqhp+Ko7azZoMhoDzBArXKHBjn1hX+Ybb6E/CEKjefI/08OOOcTHzQRhtx1sQQAABBLoXqD6navjJWdt9iZ03fMQBAU0FGnaMUeKOmUuGawqoQrFzXrhcev7xTu1fs+U+FTQoAwIIIICA9gJVp1UNP97/1R6XnIaAgwX8ByarcMFb0vSBtR/eT2cStkDT7nFJMwZJzz9pCy7i1rRhNyJvRAABBBD4TKDGo2r4Ofb4Z6V08AgSBAQ0Fah4507pI+bWK6ZevVFTQHWKXfTqDSo0ZQUzH3AoRAABBBCIXKAuXcnwU5+tzoGfkiCAQKgCTbvGpsweIn3EnDp3aODg5FALz/KdBPz7J2UsukR6aybPGty0e1ynsvEnAggggAACoQk05CkZfoo/Cq0akadA1oAAAsYJqHBjH09cFD8UMaojrds2Snr4cce4cl+80qgasR4EEEAAAYcKKHqfn/RFDm0P40afACIgS6Bmy33eqf2lj5VzXrhcloANt5sYnbfyKult6p3av/qDe23IS8+PAAIIIGCZQEuNkt/8nP0phzcEENBSIDE6de5Q6aPk5FmDGz95SEtAy3r/EDfUkjDRGy8/06YvuIhmRQABBBBAIHyBQLN64SfQHH59QjycsyEEEDBWoGz9rdKTjzuGG/tEG9usn66t9M2baVwzYFknAggggIBFAoe/EEbyEUK4wntbsO+qOm1R/UlKCCBgqED99geTZg6WPj7OXDy8JWEi3YjhAi0JE7Oev0x6+ybPHNSwY7ThtWOFCCCAAAL2Fzj6WLB5pONyJoefvDfsT2/oiBMuBBQRyHvxSukjY3eMq/7jBxUBsV8xaj+83x3rkt7KeSuvEommfLtlvyajRggggAACnwkcf7JjqAn2L5PDT9IznxWRkIAAApoIVL57pyeun/xhMROCmbzD5L90tfRW9sb3r9p8N0cKBBBAAAEEQhM4+e/Bxp2Oy5kcfo5/PbRqmHykpzAIINCngH//pOQZg6SPidPmD2vaw61gzP1KpLWtZ18gva1T5gwJHJzS557JAggggAACCHwmcOb7HUNNsH+ZGX4aCj4rH6kGAQR0EAgkRhetvV76aNgdyzwH5saets65fMNtntgo6S1etv7WtiLxAAEEEEAAgb4Fzv4s2LjTcTkzw0/JJ32XW4fhILVAwDkCdR8/qMIFbznLLvcfmOwcdok19R+YnL10hPTwkzRjEBOaS9wN2DQCCCCgn8D5X3UMNcH+ZWb4yVyqnyNhDAEHCwQSo7MVmAHME9evmQveLNwP6z56QImZD1ZdxSEDAQQQQACBYAU8fwg27nRczszw4/mfYEtv4WGeIiGAQE8CJW/cpMIVUAUvX9dTCXneJIGCV66T/uWPJ65f5bt3mlRBVosAAgggYDcB3187hppg/zIz/Bx73G7KhDQE7CvQsm+Cb/pA6SPglNlDAlzwZvlu5j8wKUWBmQ+SZ18QOMjljhb93IsDNAIIIKC3QMq0YONOx+VMCz8N+XqDWj74gAsBuQK5L46Unnw8sa6qTXfJdXDs1sveukWF7/1K37zZsU1AxRFAAAEEQhBIndMx1AT7l2nhp3RfCKUnaSCAgFSBum2jpCcfd4wrf/U1IpEpj+Wc+A8kTsleJn/mA298/4adYzh8IIAAAggg0IdAxnPBxp2Oy5kWfnJe7qPEUod6lA0BBNoEWvZNyFh4sfTw45s2oGk3N/aRk3w+3Rmado/1xMmf9jp76QiRKNOh7aPBAwQQQAABdQUyl3cMNcH+ZVr48T2tLha5CwEE2gkUrb1BevJxx7jK1t9CpyFdoHCNEjMfVGy8QzoFBUAAAQQQUFoge3WwcafjcqaFnxP/prRXu5Ef5UTAyQINn4xJmjFIevhJX3CRk1tBnbr7D0xKmjVY+v6QMpd5L/juCwEEEECgV4G8dR1DTbB/mRN+mirUOZZTEgQQ6EkgkBidtWS49JGub9qAmi339VRInrdYoOKdO6TvEu4YV9GrN1hccTaHAAIIIKCTQP7GYONOx+XMCT+VR3Wy41sgBJwqULnpThWGuYVruLFPrye3rN0/Awen5K28UvqO4Z3av27bKA4lCCCAAAIIdC9QtKVjqAn2L3PCT94b3ZfS2kM4ZUAAgV4EmnaPTZ03VPoYN3n2EOY56KWZpLzUsGO0N76/9H0j54XLAweZ/U+hYCxlb2SjCCCAQPcCxduDjTsdlzMn/CRP7b6UhB8EEFBGQIWftrtjXVXvcWMfFUe3xa9/Tnr48cRFVWy8naMJAggggAAC3QiU7esYaoL9y5zwc+q73RRRmTEfZUMAgdqt93vj+0kf3WYuHk5bKCqQOCV13jDpe0jSjEH+A5MUJeKghgACCCAgUaDicLBxp+NyJoSfQCMHKgQQUFkgcHBK+oKLpI9rfdMG1H/8oMpQDi9b9ea7PQpc/Fbw8rXc9sfhuyLVRwABBLoRqD7XMdQE+5cJ4af6XDflk5gL2TQCCHQUqNh4u/Tk445xFa65nr5CaYHE6LyVV0nfVTxx/WqZ+aDjR1jp3YaiIoAAAtYINOQHG3c6LmdC+Cl4l34ZAQSUFWjaPU6JG/ssvNi/n8uZVPy1T/tdt3HnGBVmPsheOoK9pX278BgBBBBAQARaOoaaYP8yIfykzqU9EEBAWYHcFSOln8t3x7pqt96vLBEFay9Q+tYt8neYGFfpmze3LxWPEUAAAQQcLXD8a8FmnS7LmRB+zv7U0Y1hzTd9bAWBsASq3rvLo8A8BzkvXE4voY1AYnSaGr8Q8ydM1AYtrI8ntUMAAQQQCFbg7I+7hJpgnzAh/Bz+YrDl5vCAAAIWCgQOTkmbr8T8XdzYR69Osvr9e1S4+I2ZD/TabSgtAgggYKKA93+DzTpdljM6/NRnmVhPC4eJ1AIB+wkUv3qDCtcvlW/gzi2q/9Sn686f/9LV0nceT2wU0wN2bRqeQQABBJwokDa/S6gJ9gmjw0/pHic2AKkMAeUFareN8sRGSR+/Zj1/Gb9c17GTbN43IWn6QOn7TzrzZCjf1ei4e1NmBBDQTyDn5WCzTpfljA4/2av14+NYgoDdBfwHJmUvHSF95OqOcdVuHUUXoalAxcY7VNiFil+7UVNAio0AAgggYJhA0QddQk2wTxgdfnzPGFYru49HgULAMoHyDber8LVPweprLKsyGzJeIDE67dkLpeefpBmDWvZNML52HHEQQAABBDQSKE8MNut0Wc7o8HPqKY5JCCCglID/wKTkWYOlj1lT5gzlgjeldowwClP74f3eaQOk70t5q64Ko/C8BQEEEEDAPgI1SV1CTbBPGBp+/A32MdUo+1JUBHoWCCRG561S4qfq5Rtuo3+wgUDRWiWmzajefLcNMKkCAggggECYAs3lwWadLssZGn5q3GFWoOehGytEAIFIBGq3jpJ+nt4d48peNiKQOCWSivBeRQSa94xX4YvE9IUXN3PxG4dOBBBAwJkCh7/QJdGE8ISh4afwA0UOzxQDAQTEoWh/wsTMxZdKDz/e+P6Nu8bSIrYRqNx0l/Sdyh3jYuYD2+xRVAQBBBAITeDkt0LIOl0WNTT8ZCwOrejOTKvUGgGrBIpfu1GFQWrJGzfRM9hMIGPRJdJ3Ld+0Acx8YLP9iuoggAACQQmc+2WXRBPCE4aGH/dvgyqxVSM/CoOAkwWado9T4bfpKXOGBA5OdnJD2LLudR89kDRjkPT8k7tiJJdT2nIHo1IIIIBAbwJJsSFknS6LGhp+jj/RW0HJPAggYKFA1vOXSR+beuL7VW26i27BlgIqfK/oiXVVv3+PLXmpFAIIIIBAjwIZi7skmhCeMC78NBb3WEQLB3yUAQEExKHomi33umNd0sNPPjf2sW/v17xnfOq8YdL3sYxFlzTvHc+nHgEEEEDAQQJ5b4SQdbosalz4qTjsIHT7DmhoRBsINO8ZnzZf/qg0eebgJuY5sHVf0ZqxY+Rn7MI119ngY0sVEEAAAQSCFSje3iXRhPCEceEn781gS2zr0QAICEgXKHjlOhWGpNzYR/qeYEEBspddLn1n88RFNe58yILKsgkEEEAAASUEKk+EkHW6LGpc+El7VgkOkhUCzhao3TZKhV+ip82/kF+iO6FLbNgxOlmBmQ+yl40Q3EjK2V2fEz5u1BEBBP4hUJ/VJdGE8IRx4cf7J5oEAQSkC6hwYx/f9IG1H94vnYICWCNQ9OoN0r/8cce4qj+415r6shUEEEAAAckC/voQsk6XRY0LP6f/UzIEJ70QcLxA5Tt3qDAMLXj5WnoD5wj4D0xKm3+h9B0vbd6w5j3MfBDtnB2PmiKAgEMFjj7WJc6E9oRx4efIow5tA8cPuGl3RQSado1NnjVY+hg0df6wpt3jFDGhGNYI1G693xMXJX3fy3/pamvqy1YQQAABBKQJnP5eaFmny9IGhZ/mcmkEZA8EEDgULRKjC16+Vvrok6uPHNsTZi8bIX33807t37hzjGObgIojgAACjhDw/K5LnAntCYPCT7XHEdwMshFQVaB68z2euH7SR5+Zz11KV+BMgYYdY5JmDpK+B2YtGS4SufQLAQQQQMC+AikzQss6XZY2KPyU7nbm8Z5aI6CCQCBxSsrcIdLHnb5pAxo/4by7fY83fSX/io23S98J3TGu8o23q/CppAwIIIAAAqYIZL3YJc6E9oRB4SfvLVOq19exlo0igIA4FF2y7iYVBp1Fa6+nOZws4D8wOX3RJdJ3xdS5Q/nVmZP3Q+qOAAI2FyjaFlrW6bK0QeEnfZHNoYlhCKgq0LJvgndqf+kjzoxFl7Tsm0A/4HCB2m2jpO+K7hhXwWrmG3TuN5AO/wxSfQTsL1Dj7RJnQnvCoPDjfdr+1qqOfZF3skAgcUrO8ivkDzdjXTUf3ufkhqDubQK5K0ZK3yG98f3rd4xuKxIPEEAAAQTsIxBoCi3rdFnaoPBz5of2MSXkIKCPQPmG21WYYjhv5ZWBxCl0AgiIQ9GNnzykwi/QMp67xL9/Ei2CAAIIIGArgZNPdckyIT9hUPg59mVbyeoz9oXdyQL+hIlp84dJP8vumzaAC96cvB92rXv5htuk75buGFfFxju6lo1nEEAAAQQ0FvD9NeSs0+UNRoSf5iqNEck5CGgrkL/qaulDTE9sVNn6W+kBEGgv0JIwMXPxpdJ3ztR5w5p2jW1fMB4jgAACCOgtkL2qS5YJ+Qkjwk9tst6O2o59YXeyQN1HD0gfXLpjXNnLRvgPTHZyQ1D3bgUato92x0RJ30XzVl7ZbfF4EgEEEEBAS4HST0LOOl3eYET4KT+gJR+ZBwFtBfz7J2UtvUz6yNIb36926yg+/gh0K5C78krpu6g71lW/nZkPmPkNAQQQsItAbWqXLBPyE0aEn8L3uz3y8SQCCJgkoMhvKopfu9GkCrJaGwg07RqrwswH6Qsv5stJG+xOVAEBBBBoFTDiHyPCT84a2gMBBCwTaN47Pnn2BdLPqafMvsB/kAve7HIuzZxvQcvW3yp9R3XHuMo33G7Zx5MNIYAAAgiYJXDmB0ZkH2FE+ElbYFYlzTkeU1oEtBbIeUGFG/tEMZWW1nuRNYUPHJyswvWZybMGN+wYY02V2QoCCCCAgFkCSXHKhJ+kZ8yqJOEHAQQ6CtRuHaXCqfTMJcP51CMQjEDjzjHeqf2l77Q5L1wRTGlZBgEEEEBAXYGctcqEn3O/UJep48CRciKgtYB//6S0Zy+SPo70TRvQsIMfkXPBW7AC+S8pMCd7XL+6bUzOEWyTad1PUngEELCtQNk+ZcLPyW/ZVpnshIBKAiXrPic9+bhjXKVv3sxHHoHgBZr3jE9R4FdqqfOGBRKnBF9slkQAAQQQUEugIUeZ8HP4i2rRqDRaRQYBowRqt43yTR8oPfykzh3qPzDJqEqxHocIVG66S/qu645xlbxxk0PAqSYCCCBgN4HDXzQk+QgR+YQHzVV2wyU7IaCkQMZzl0gfPnriomq23MtHHoGQBRKn5C4fKX0HTpoxqO6jB0IuvJIdArVAAAEEnCVw9qfKhJ+6dGfRcxREQIZA5bt3umNd0seO+S9dzecdgfAEmnaP88RFSd+Hc164PLzy8y4EEEAAAZkCqTOVCT+Vx2VCyBiGUl8ELBZo3js+acYg6aPG5NkXNH7ykMV1Z3N2Eih45Trpu7EnLqr6/XvspEpdEEAAAUcI5L6hTPgp3u4IcVIWApIEAonRhQoMGd0xrrL1t/JhRyASgcDByekL5E9XmDJ7iH//xEgqwnsRQAABBKwWKE9UJvzkvWV15SWNQakmAlIEarbc65s2QPr58vSFF/sPTJYiwEbtJFD9wb2eWPkXv5WsY+YDpr1GAAEEtBJoLFQm/GS/ZKcDM3VBQDWBjEXy5znwTu3PjX1U2zE0LU/g4JTclVdKD/NJMwfXf8y9qrQa93DeEwEEnCxw7MtGJR8jZnvLXK7pMZhiI6C+QOkbN0kfJrpjXPmrr1HfihLqItC8e5wnvp/0HZuZD3TZYSgnAgggIM79Uqnws5QmQQABMwSado/zxveXPkZMnTu0afc4MyrIOh0rUPz6jSrMXlj13l2ObQIqjgACCOgkkDZfpfCT8ZxOdk7+xpC6ayUQSJxSsPoa6cnHHeOq2sQAkauDDBbw75+kwn2rkmYNbt47nkMYAggggIDqAgUbVQo/afNV99JqyAsmAp8KVG2+W4VT4znLrxCJBg98aWIExKHo6s13q3Dbn+LXb6Q5EEAAAQRUF6g4rlL4SZ2juhfhBwHdBPz7J6XMvkD61z7eqQOa93BenOxnlkDBy9dK38l90wbUbRvFUQwBBBBAQGmBpjKVwk/KdKWxdBv1gomAOKTKjX2KX+OkuFnjfvZzcSi6JWFi0vSB0vNPxqJLaA4EEEAAAXUFTnzTwORjxGxvyXHqYpF8ENBQoPGTh7xT5c9zkLHoksDBKXy6ETBVoOSNmzyxLsn5J9ZVvuE2U6vJyhFAAAEEwhdImaZY+PE9E35lNByYUlkETBUIJE7OWjpC8lgwxuWOjar98H5Ta8rKERCHogMHp6TNHyZ9h/dNGxBI5B6+fM+JAAIIKClQuFmx8OP9M4dwBBAwSqD87dukDwTdMa7CV64NJPK1j5LHANudM6rZcp8Kc3sUrb3eqE8x60EAAQQQMFKgLl218PMHI6tnu+M6OAgEL9C0a2zqvKHSw49v2gDm/w2+1VgyUoHEaBVmPvBOG1Cz5d5I68IhDAEEEEDAWIHjXzU2+Rjxmx/3bzhaIICAIQJ5K6+Snnzcsa7St24xpDqsBIEgBZr3jk+aMUj6zp+1ZHiQBWYxBBBAAAGLBHx/UTD8/NaiyhubI1kbAooJ1G0bpcLFP5mLhzPPAX2a9QJlb9/miY2Sm388sVFl62+1vu5sEQEEEECgR4G8t9QLP57f91hcxQaXlBMBZQVa9k1IX3Ch3JGfO8bFlT/K7iFOKFi2AlN9+KYNaNo9zgna1BEBBBDQQ6D6vILh54962JHEEFBYoOytW6QnH3eMq/hVbuzDJAfSBOq3P+ibNkD6ByH/pavFIWb7kLYbMKJAAAEEPhM4+pjhyceI3/z4nv6siAoPLikkAsoK1G9/MHnmYOljvuTZFwhmeKMTkypQ/NoN0j8I3qn9mflA2d6SgiGAgLMEPL9XMvwkcZ8fzpAhEJFA5pLh0gd8nrioqs13O6tLlTrKh7pbAX/CxKSZ8mc+yHzuUpEY0Ye629rxJAIIIIBAaALZq9UMPzGhVYMBBwIItBOo3nyPCvMcZC29jA8yAioIVLxzhydO8swH7hhX6Zs3q6BBGRBAAAFHC1QcUzL8JMc7ulXajWJxQCBUAf+BSSrM8Js8c1DD9tGhFp7lETBJIGf5FdK/C/XG92/cNdakCrJaBBBAAIG+BY48IgJNaoafaX2XnoSAAALdCRS/dqP0QZ47xlX+NtP7co2TQgJ120b5pg+U/tHIX31NgF/BdddxcdBHAAEErBBw/9qM5GPEhAepM62oP/0vArYTqN16vwojvPSFF/v3T+JTjIBSAiXrPic9/Hjioqrfv0cpFgqDAAIIOEggc7my4We2g5rBduNv2k6WQCAxWoV5DtwxrvqPH5SFwHYR6FlgSvLsC6Tnn5S5Q5gCsec2UujbQgqJAAI2FChLUDX8pM23ITchBwGTBcrevlX6/ezdMa68F6/k84uAmgKV797piesnPf+UrLtJTR9KhQACCNha4GHRXKls+Flga3rObCFgvEDLvgleBW7mmDpvGD/ppvtSWSB72Qjp4cc7tX/z3vEqK1E2BBBAwIYC535hUvIx4jc/Gc/ZUNzks/6IOVkgcHBK3qqrpQ/p/j7PwW1Obgjqrr5A/fbRvmnyZz7IW8kXpMafA1J/96OECCAgUyBzicrhZ4lMGlIKAroJVL9/jwq3McleOiJwYDIfXgQUFyhbf6v0MwWeuKiKd+5QHIriIYAAArYSKNmpcPjJXGYra91G0uBrJpAYnbn4UvmDufh+TdzDhA+7DgL+A5NTFJj5IO3ZCwMHOVnA9z8IIICAVQKNBQqHn6wVmo0+dTjeQ2pXgbK3b1NhnoOC1dfYVZh62U+g+v173LFR0k8ZFL16g/1sqRECCCCgosDZn5iXfIz4zU/WKhXVSDgIqCcQSIxOnTdM+hgude4Qf8JEPrYIaCSQu2Kk9A+OJy6qcddDGqFRVAQQQEBXgfQFaoefnJd1lVVvcIykvQXqPhrljpF/Arty0532dqZ29hNo/OSh5FmDpeef3BUjufjNfnsXNUIAAeUEirapHX7yNypHRqpBQEGBxOiC1ddIH73lrboqcHAKn1kEtBMo33Cb9I+PJy6q8l3OHVh1xb+C3ThFQgABawTqMtUOP6W7tTuIUmAErBdo2Tchde5QuaM3T1y/5t3jrK87W0QgcgH/gclp8y+U+wlyx7iY+SDypmQNCCCAQG8Cp79vavIx4jc/1Wd6q4A1AZGtIKC8QO2H90kftxW/fiOfVgT0Faj/6EHf1P7SP0cFL1+rryElRwABBFQXSF+kfPipz1EdUflhMYBOEChbf4vcQVv6wotFIterIKC3QMnrn5P7OXLHuDxxUQ07xjih16KOCCCAgASBsgPKhx9/vQQX8gwCugkUvHKdxEGbd2r/2q3381FFQHeBpj3jpF8+6o5x5a++RiTy2zm9g7TunwXKj4A9BU5+SwSalQ8/Qoijj9mzAXQbXtMKKgvkv3S1xPBTuOY6vvZRefegbMELVLx7h8SP0qeb9sb3q/vogeDLzJIIIIAAAkEJpM03O/kY8ZsfIcTp7wZVH7IEAg4WyF91vLTb+QAAIABJREFUlawRW9KMQU3Mc+Dgfc9u/XNidPrCi2V9mtq2m7fqKrvB8hlBAAEEpAuU7dUk/Lh/yzEAAQR6F5AYfirfuaP3svEqAnoJ1H/8oG/6wLYcIuVBytwh/v2T9HKjtAgggIDSAsefFP56TcJP8lSlKaWnWAqAwKHofEk3+clcMpyPJwL2E5D1gWoLWt74fpWb7rIfLDVCAAEEpAmkzLQg+Rh02VvGUmlMjKoR0ESgZN1NbcMmyx74pg+s2zaKjycC9hNo2j02dZ7kG2cx57X99itqhAACMgVKdugTfvLelCmlydgXIocLVL13l2WZp21DRWuvdzg71bexQPXme9p2dSkPMp+7VBxizjfmfEMAAQSMEDj2uGiu1Cf8lGy38fGVqiFgiEDjzjHeeEvvz5g2/0J+k2BI27ESRQUSozMXD5cSez7daOrcoYGDkxXF4bQgAgggoJdA8lRrko9Bl71VHqf3RwCB3gUCBydnLx1h2UDNExtVs+W+3ovEqwjoLtCwc4wnrp9lH6tOG0qZfUHgAOHHiDO+eg3RKC0CCJghULxNq/BTl677EZTyI2CBQOWmOzsNnsz7M3vpCG7sY0GbsgnpAgWvXGve56j3NSfNGNSSMFG6AAVAAAEEtBc48qhoKtUq/DRXaY9uRoRlnQh0FGhJmOiJi+p9OGXIq0kzBjXsHMOnEgEnCDTvHZ/+7EWGfHBCXUnS9IGEHyfsY9QRAQRMF/A9Y1nyMeiyNyHEkUdMd+k4jmRzCOgokPvilaEOsMJYvnz9rTriUGYEwhOo/uDeMD4mkb8ledYF/KwuvCbjXQgggEAHgcLNGoafk//eoQ4EFQQQ6E6g8ZOHUuYOiXzU1csaMp67lLPRdEfOEkicYuUP6to+fZmLhwcSme2N3/wggAACkQkc/oJoyNcw/Jz/pbOOtd2NaxFAIBiB0rduaRs8mfGg9sP7gykGyyBgJ4Gm3eN80wea8YHqcZ2xLqaSt9MuRF0QQECagO/PViYf4y57S5kpjYwcgoBWAoGDk/NXXd3jiCrGFclLxa/eyCcRAWcKlJl8WqHTB9MT36/6/XucSU2tEUAAASMFCt7RM/zkrjNSQauxLBVHIFQB//5JGYsv7TSWivzP/FVXh1oSlkfANgIt+yZkLLok8s9RkGtInTeUa95ss/NQEQQQkClQn61n+Ck/IFONsISAbgItCRPT5g8LcpgVzGK5K0Zyv0V6IYcLWDnzQf5LnGuI7Cp/3Tpth3+4qD4CZgl4fmdx8jHusreGXLNQ6B8RsKmA/8Ako65/y142gg8gAgiIQ9E5L1wezMmCCJfxxEZxzRv7GwIIIGCAQN6b2oYfZru26QDdgN0amV4EEqdUvndX+oLw71KSNGNQybrP0UwIIPCpQNOuscmzLogw2/T59qwlw5nkml0OAQQQMECgNlXn8HP2JwYQ9DJM5CUEbCrQvGd86Vu3ZCy6xDttQJ+jrrYFfNMG5L90dd1HD/C5QwCB9gKlb97siTX3bsLVH9zbfos8RgABBBAIR8D9a+uTj3GXvQkhUqaHU22bDmehQCAMgcadDxWuvT5l7lBPXL+2kNPlQVTq/GHFr93YvGd8GJvgLQjYXiBwcHLOipFdPjgRzaPYfm25L460vSEVRAABBKwQyH1N8/CT+5oVTIQlBOwuEDg4uSVhYuOusbVb7y/fcHvZ+lvL1t9S+tYtVZvuqt/+YEvCROaYoqtBoHeB5j3jU+aYcjfhjIUXcxPh3vF5FQEEEAhWoManefgpSwi2qnYfvOKAAAIIICBXoGHHmKQZg9p/YxP545Q5Q7jQVG6zsnUEELCPwLn/kpJ8DL3srS7LPu1BPEMAAQQQ0FygfvvopOkDI888n67BN31gw47RHOYQQAABBIwRyF6tf/gRQhz+vDEcmh9xQUAAAQQQUEGgcedDqXOHRp5/sp6/rGHHGBVqRBkQQAABmwjUpdki/Jz5oU3ag/SFAAIIIGALgea94/Nfuto7tX/YEajg5Wv5nQ8HdwQQQMBIgaRnZCUfQy97E0IkxxvpYovjLiAIIIAAAtIFGraPzlh0Saj5J3PJ8Npto6QXngIggAACdhMo3m6X8JOzxm5tQwBDAAEEELCJwJSaLffmrbwyefYF7l5vBOSdNiDr+cvqPnqAmRU5piOAAALGC5z8tvA32iX8lO4xHsgmB91oZBBAAAEEVBBo2DGmbP2tOctHpi+4MHXesJQ5Q5JnX5C+8OKs5y/LWX5F4Zrraj64N3BwigpFpQwIIICADQUyX5CYfIy+7K0uw4YtRPpCAAEEEEAAAQQQQAABQwSqz9so/AghDj1M/kEAAQQQQAABBBBAAAEEOgt4fi83+Rj9zY8Q4vT3O1fSkIzIShBAAAEEEEAAAQQQQEBrgaL3bRd+UmYQfhBAAAEEEEAAAQQQQACBDgLHvyaaK20Xfoq2dKik1tmUwiOAAAIIIIAAAggggIAhAukLpScfEy57q88i/CCAAAIIIIAAAggggAACHQQqT9gx/AghTny9Qz0NSYqsBAEEEEAAAQQQQAABBDQVOP8rFZKPCd/8CCGSYgg/CCCAAAIIIIAAAggggMA/BPLftm/4yd9AMyOAAAIIIIAAAggggAACrQJHvyQaCu0bfmqTaWYEEEAAAQQQQAABBBBAoFUgZZYiycecy96EEMefpKURQAABBBBAAAEEEEAAAVF+0O7hx/cXmhkBBBBAAAEEEEAAAQScLnDmx+okH9O++cl93enNrOlEHBQbAQQQQAABBBBAAAEDBXJfdUD4qTpD+EEAAQQQQAABBBBAAAFHCxz+F1Gf6YDwI4Q49rijW9rAuMyqEEAAAQQQQAABBBDQUSA5VqnkY9plb0II7/8SfhBAAAEEEEAAAQQQQMC5AmUJjgk/OWud28w65nLKjAACCCCAAAIIIICAgQLu36mWfMz85qfiKOEHAQQQQAABBBBAAAEEHCpQssNJ4cffKI5+2aEtbWBiZlUIIIAAAggggAACCGgncP6XCiYfM7/5EUJ4/kj4QQABBBBAAAEEEEAAAccJFG1xXvjJftlxzaxdKKfACCCAAAIIIIAAAggYK3D2x0IEnBd+yg8TfhBAAAEEEEAAAQQQQMBZAgUb1Uw+Jl/2JgLi5Led1dLGhmbWhgACCCCAAAIIIICAXgKnviNa6pwZfoRIW0D4QQABBBBAAAEEEEAAAacI5L6ubPIx+5sfIcoSnNLMeiVySosAAggggAACCCCAgOECJ74hmsocHH4CTeLEN8g/CCCAAAIIIIAAAgggYH+B7JdUTj7mf/MjhEidY/9mNjw0s0IEEEAAAQQQQAABBPQSOPYV0ZDv+PBTsovwgwACCCCAAAIIIIAAAjYXyFymePKx5Jufllpx/Gs2b2m9QjmlRQABBBBAAAEEEEDAWIHDXxB16YSfvwukzCD8IIAAAggggAACCCCAgG0F0p5VP/lY8s2PEKJkh22b2djEzNoQQAABBBBAAAEEENBRoNpD+PmnQHOlOPpl8g8CCCCAAAIIIIAAAgjYUCBl5j/H/ar/32VRAZPibNjMOoZyyowAAggggAACCCCAgLEClSctyhQRb8aq8FO8lfCDAAIIIIAAAggggAACdhNIiok4kli3AqvCT1OJOPKo3Vra2MTM2hBAAAEEEEAAAQQQ0E6g4pB12SXiLVkVfoQQSc8QfhBAAAEEEEAAAQQQQMA+Akl/iziPWLoCC8NP4Wb7NLN2iZwCI4AAAggggAACCCBguEDVaUuzS8QbszD8NOSLw58n/yCAAAIIIIAAAggggIAdBNIXRhxGrF6BheFHCOH7sx2a2fDEzAoRQAABBBBAAAEEENBL4NgToj7b6uwS8fasDT8F7xB+EEAAAQQQQAABBBBAQHuBnDURJxEJK7A2/DTkiyP/R/uW1iuUU1oEEEAAAQQQQAABBIwVOP090VIjIbtEvElrw48QImUG4QcBBBBAAAEEEEAAAQQ0FijcHHEMkbMCy8NPWYLGzWxsYmZtCCCAAAIIIIAAAghoJ+D+jZzgYsRWLQ8/QogzPyL/IIAAAggggAACCCCAgJYCZfuNiCFy1iEj/OSs0bKZtQvlFBgBBBBAAAEEEEAAAWMFkqfKSS0GbVVG+KnLEIceJv8ggAACCCCAAAIIIICAVgIPi+rzBsUQOauREX6EEEkxWjVzNKVFAAEEEEAAAQQQQMDpAhlL5EQW47YqKfyUfOL0XcfY7x9ZGwIIIIAAAggggAACpgocf1I05BsXQ+SsSVL4CbSIU/9B/kEAAQQQQAABBBBAAAE9BHJfl5NXDN2qpPAjhMheqUczmxqgWTkCCCCAAAIIIIAAAuoLnPmRCDQaGkPkrExe+KnxEX4QQAABBBBAAAEEEEBAA4HirXLCitFblRd+hBC+P2vQ0uoHcUqIAAIIIIAAAggggIB5At4/GJ1BpK1Pavgp2kr4QQABBBBAAAEEEEAAAaUFyhOlhRWjNyw1/PjrxMlvKt3S5gVo1owAAggggAACCCCAgPoCKTONDiAy1yc1/AghMp4n/CCAAAIIIIAAAggggICKAkcfE7XJMsOK0duWHX6qz6rYzOpHcEqIAAIIIIAAAggggIDZAnlvGp0+JK9PdvgRQrj/h/yDAAIIIIAAAggggAACagl4/yg5qZiweQXCT+F7ajWz2QGa9SOAAAIIIIAAAgggoLjA4c+LqjMmpA/Jq1Qg/DSVixP/Sv5BAAEEEEAAAQQQQAABVQRyXpEcU8zZvALhRwiRtUqVZlY8glM8BBBAAAEEEEAAAQTMFjj/KyEC5qQPyWtVI/w05ImjXyb/IIAAAggggAACCCCAgHyBiiOSM4ppm1cj/LTOeb1UfjObnaFZPwIIIIAAAggggAACigtkLjcteshfsTLhpy5dHP4i+QcBBBBAAAEEEEAAAQSkCZz9qWipk59RTCuBMuFHCJG+UFozK56/KR4CCCCAAAIIIIAAAhYIlCWYljuUWLFK4afGS/hBAAEEEEAAAQQQQAABOQLpi5QIKGYWQqXwI4RInS2npS2I0WwCAQQQQAABBBBAAAFlBU59VzSVmZk7lFi3YuGn+gzhBwEEEEAAAQQQQAABBKwWKN6uRDoxuRCKhR8hRHK81S2tbP6mYAgggAACCCCAAAIIWCCQOsfk0KHK6tULPxVHCT8IIIAAAggggAACCCBgkcDJb4qGPFXSicnlUC/8CCF8f7WopS2I0WwCAQQQQAABBBBAAAGVBYo+MDlxKLR6JcNP2X7CDwIIIIAAAggggAACCJgukBynUDQxvyhKhh8hhOcPpre0yvmbsiGAAAIIIIAAAgggYLbA8SdEXZr5iUOhLagafkp3EX4QQAABBBBAAAEEEEDARIH8txXKJZYURdXwI4Q4//9MbGmzYzTrRwABBBBAAAEEEEBAZYHkqZbEDbU2onD4Kf6I8IMAAggggAACCCCAAALGC5z+rmgsUiuXWFIahcOPEOLcz41vaZXzN2VDAAEEEEAAAQQQQMACgbL9lmQN5Taidvgp2kL4QQABBBBAAAEEEEAAASMFcl5WLpRYVSC1ww/TvlmQ+9kEAggggAACCCCAgHMEfE9bFTRU3I7y4afisJEx1zm7NTVFAAEEEEAAAQQQQKCTwIlviLoMFUOJVWVSPvwIIVLnkH8QQAABBBBAAAEEEEAgUoGS7ValDEW3o0P4qUsXRx+LtKU7pV7+RAABBBBAAAEEEEDAUQKZSxVNJBYWS4fwI4TIXk34QQABBBBAAAEEEEAAgTAF3L8RgWYLU4aim9Ik/LTUiDPfD7OlHRXoqSwCCCCAAAIIIIAAAp0Ejj4mqs8rGkesLZYm4UcIwbTXnXZi/kQAAQQQQAABBBBAIBiBwvesjRjqbk2f8MO018Hs2SyDAAIIIIAAAggggEB7gbR56mYRy0umVfhh2uv2+zGPEUAAAQQQQAABBBDoXeDsT0VzpeURQ90NahV+mPa6952bVxFAAAEEEEAAAQQQ+EzgYVFxVN0gIqNkuoUfpr3+bG+OZgYIBBBAAAEEEEAAAQR6FMhdJyNfKL1N3cIP014TfhBAAAEEEEAAAQQQ6FMgKU7pFCKpcBqGH6a97nNfZwEEEEAAAQQQQAABJwuc+o5oyJeUL5TerIbhh2mvnfxJpu4IIIAAAggggAACfQqU7lU6gsgrnJ7hh2mv+9zjWQABBBBAAAEEEEDAmQIF78gLF6pvWdvww7TXzvwwU2sEEEAAAQQQQACBXgSyX1I9f0gtn7bhh2mve9npeQkBBBBAAAEEEEDAgQLcz7SvZKVz+GkoECef6nFqPwfu7lQZAQQQQAABBBBAwLECvqf7GvnzutA5/AghSnYQfhBAAAEEEEAAAQQQcLrA6e+JplLCTZ8CmocfIUT6Qqfv6449vUHFEUAAAQQQQAABBD4VqE3pc9zPAkLo/s2PEKK5Upz5EfkHAQQQQAABBBBAAAGHClQcIdgEKaD/Nz9CiLL9Dt3ROdWBAAIIIIAAAggg4HCB4o+CHPezmC2++fm0GbOWk38QQAABBBBAAAEEEHCWQN4bRJqQBGzxzY8QItAkzv3SWfu6w09yUH0EEEAAAQQQQMDhAqkzQxr3s7CNvvkRQlQcI/wggAACCCCAAAIIIOAIgbM/IcyEIWCXb34+rXrOK47Y1x1+koPqI4AAAggggAACDhc4/AXhrw9j6M9b7BV+hBCe35F/EEAAAQQQQAABBBCws0BDHjEmPAHbhZ/q8+LIo3be1x1+noPqI4AAAggggAACDheoOhXeuJ932es3P23tmfcm4QcBBBBAAAEEEEAAARsKFLzbNublQRgCtvvm51ODpGdsuK87/CQH1UcAAQQQQAABBBwukDY/jOE+b2kvYNPwU5smjn2V/IMAAggggAACCCCAgE0E3L9pP4jncXgCNg0/QojCzTbZ0R1+hoPqI4AAAggggAACCJB8wss6Xd5l3/AjhEiZTv5BAAEEEEAAAQQQQEBvAZJPlwwT9hO2Dj8NeeLUU3rv65znQAABBBBAAAEEEHCyAMkn7KDT3RttHX6EEBWHCD8IIIAAAggggAACCGgpQPLpLsBE8pzdw48QomCDlvu6k89wUHcEEEAAAQQQQAABkk8kKaeH9zog/AghMhaRfxBAAAEEEEAAAQQQ0EaA5NNDeonwaWeEHxEQ3j9os69zngMBBBBAAAEEEEDAyQIknwgjTs9vd0j4EaI+U5z8d/IPAggggAACCCCAAAJKC5B8eo4ukb/imPAjhCg/oPSO7uTTG9QdAQQQQAABBBBA4FC0IPlEnm96XYOTwo8QIn89+QcBBBBAAAEEEEAAARUFSD695hZDXnRY+BFCpC9QcV/nVAcCCCCAAAIIIICAkwVIPoaEm75W4rzwE2gWnt+RfxBAAAEEEEAAAQQQUEWA5NNXaDHqdeeFHyFEXbo4+S1V9nUnn+Gg7ggggAACCCCAAAIkH6OSTRDrcWT4EUKUJRB+EEAAAQQQQAABBBCQLEDyCSKxGLiIU8OPECLvTcn7Ouc5EEAAAQQQQAABBJwsQPIxMNYEtyoHhx8hRNp88g8CCCCAAAIIIIAAAhIE3P8T3HCdpYwUcHb48Te2Tqbu5PMN1B0BBBBAAAEEEEDAeoHUmUaO6FlX0ALODj9CiNpUceIb5B8EEEAAAQQQQAABBCwSyF4V9FidBQ0WcHz4EUKU7rVoR7f+pAJbRAABBBBAAAEEEFBKoGCTwcN5VheKAOHn71rF28g/CCCAAAIIIIAAAgiYK1C2P5SBOssaL0D4+adp4bvm7utKnXKgMAgggAACCCCAAAJWChx5RNQm/XPcyf+lCRB+2tHnriP/IIAAAggggAACCCBgsMCJb4qmsnaDTh5KEyD8dKTPXm3wvm7lGQW2hQACCCCAAAIIIKCawLn/6jjc5C+ZAoSfLvqZy8g/CCCAAAIIIIAAAggYIOB9ustYkydkChB+utNPf9aAfV21sw6UBwEEEEAAAQQQQMBKgbT53Q00eU6mAOGnB33fX8k/CCCAAAIIIIAAAgiEKZCzuodRJk/LFCD89Kx/7udh7utWnlFgWwgggAACCCCAAAKqCRS82/MQk1dkChB+etb314sT3yD/IIAAAggggAACCCAQrMCxx0XZ3p7Hl7wiWYDw02sDNJeJQw8Hu6+rdsqB8iCAAAIIIIAAAghYKXD6e6LqTK+DS16ULED46asB6nMJPwgggAACCCCAAAII9CHg/o1oyOlrZMnrkgUIP0E0QG1qH/u6lWcU2BYCCCCAAAIIIICAagIpM0RLXRDDShaRLED4Ca4BKk+SfxBAAAEEEEAAAQQQ6EYg743gBpQsJV+A8BN0GxTv6GZfV+2sA+VBAAEEEEAAAQQQsEzg9PdFxeGgR5MsKF+A8BNKG+S9Sf5BAAEEEEAAAQQQQKBVIHmqaCoJZSjJsvIFCD8htkHeG3zaEUAAAQQQQAABBJwukLcuxEEkiyshQPgJvRmKtzn9027ZV8lsCAEEEEAAAQQQUE3g9PdEeWLoI0jeoYQA4SesZihPJP8ggAACCCCAAAIIOE4gOV40FoU1fORNSggQfsJthhqv4z7tqp13oTwIIIAAAggggICVArmvhjtw5H2qCBB+ImiJhnxx9MtEIAQQQAABBBBAAAGbC5z6rig/EMGokbeqIkD4iawl/PXi1FM2/7RbeUKFbSGAAAIIIIAAAqoJJMWKxoLIhoy8WxUBwo8RLXHuF+QfBBBAAAEEEEAAARsK5K41YrDIOlQRIPwY1BLeP9vw067aeRfKgwACCCCAAAIIWCZw6juiLMGgkSKrUUWA8GNcS6TOIv8ggAACCCCAAAII2EHA94xoyDNumMiaVBEg/BjaEpnL7PBpt+yEChtCAAEEEEAAAQQUFMh52dABIitTSIDwY3Rj5L5O/kEAAQQQQAABBBDQUuDsz7jUzejBsVrrI/yY0B5FW7T8tCt43oUiIYAAAggggAAClglkvSj89SYMDVmlQgKEH3MaoyxBHHucCIQAAggggAACCCCggYDnf0TlCXMGhaxVLQHCj2ntUXVGnPquBp92y86msCEEEEAAAQQQQEA1gSP/V+S+btpwkBUrJ0D4MbNJ6nOE7xnyDwIIIIAAAggggICKAknPiBqfmWNB1q2cAOHH/CbJXq3ip1218y6UBwEEEEAAAQQQsEzgxNdF4XvmjwLZgnIChB9LmqRsrzj1FBEIAQQQQAABBBBAQL5A6mxRn2PJEJCNKCdA+LGqSbgEzrJzOWwIAQQQQAABBBDoVuD090TJDqsGf2xHRQHCj7WtwiVw3fZEPIkAAggggAACCJgtkLFYNFdYO/Jja8oJEH4sbxIugTO7a2P9CCCAAAIIIIBAe4FzvxDliZaP+digigKEHxmtwiVw7fsjHiOAAAIIIIAAAmYJPCyyV4tAs4wBH9tUUYDwI69VuATOrG4uWv4vKakaAggggAACCEgX8P5RVJ+RN9RjyyoKEH6ktgqXwEnvFikAAggggAACCNhP4PiTIu8tqYM8Nq6oAOFHdsNwCZz9OlxqhAACCCCAAAKyBA5/UWQuE40Fskd4bF9RAcKPGg3DJXCyuki2iwACCCCAAAK2EUidI2qT1RjbUQpFBQg/yjQMl8DZpuelIggggAACCCBgsYDvGVF5QplRHQVRV4Dwo1LbcAmcxR0lm0MAAQQQQAAB3QXcvxGle1Uaz1EWpQUIP+o1T8G74viTzFeGAAIIIIAAAggg0JvAmR+Joi3qjeQokdIChB8lm6c+SyRP7+3TrvtJGsqPAAIIIIAAAgiELXDimyLvTRFoUnIYR6GUFiD8KNw8xdvEqe8QgRBAAAEEEEAAAQT+IXD0SyJrpWgqVXgAR9GUFiD8KN08oqlEpC+kv0MAAQQQQAABBBAQ6QtEXYbaQzdKp7oA4Uf1FmotX+lecfYndHkIIIAAAggggIBDBZLjRdVZHQZtlFF1AcKP6i30j/K11ImsFQ7t78K+IJg3IoAAAggggIDuAp4/iPKDmgzXKKYGAoQfDRrpsyJWHhPnf00EQgABBBBAAAEE7C9w9uei+OPPRkE8QsAIAcKPEYoWryNnrTjyiP27PN3PVFF+BBBAAAEEEAhP4Pz/E8VbLR5esTmHCBB+9GzoarfwPU3+QQABBBBAAAEEbCXg/bMo446leo5ONSk14UeThuq2mPkbxLGv2qrLC+/8EO9CAAEEEEAAAd0FkqeKiqPdjnd4EgEDBQg/BmLKWFVdhkiZRv5BAAEEEEAAAQS0FDjySOsE1tVuGaMotulEAcKPLVq9eKs482MtuzzdT1NRfgQQQAABBBAIT+DY11pnsq3LtMVQjEpoI0D40aap+ihooFnkbxCn/4MIhAACCCCAAAIIKC1w8imR+6poLO5jbMPLCJggQPgxAVXiKpurRc6r4sTXle7ywjs/xLsQQAABBBBAQHeBsz8VBe+IljqJYyU27XABwo8dd4DGYpG9Shz7ChEIAQQQQAABBBBQQsD9W1G8zY6jLuqkmQDhR7MGC6G49Tki83lx+AtKdHm6n6mi/AgggAACCCAQnoDvL6JsXwgDGBZFwEwBwo+ZuiqsuzZZpM0n/yCAAAIIIIAAAlYLpMwQlcdVGA1RBgTaBAg/bRS2flB9TqRMt7rLC+/8EO9CAAEEEEAAAa0FTj3VOo1bjcfWQysqp6sA4UfXlgun3JXHRNIzRCAEEEAAAQQQQMAEgYdFUowo2SkCzeGMUngPApYIEH4sYVZqI2X7hecPJnR50awTAQQQQAABBJwocObHImctd+xRarhHYXoSIPz0JGP350t2ivO/cmIHrfWFBBQeAQQQQAABdQSOPiZSZ4vyg3YfM1E/WwkQfmzVnCFXpuhDce5nRCAEEEAAAQQQQCAEAfevRcFG0VgU8sCDNyAgW4DwI7sFVNh+2V6R9LcQujx1zjlREgQQQAABBBCwTOBZ7bqyAAAHzElEQVTEN0TGYlF1WoXBC2VAIDwBwk94bnZ8V4239b5Ax58kBSGAAAIIIIAAAh0EvH8WRVtFS60dB0DUyVkChB9ntXfftW0uE/lvcy1chx7fsjNqbAgBBBBAAAGlBE7/p8heJWqT+h4/sAQCmggQfjRpKOuLybVwSh1+KAwCCCCAAAKWCZz5sch8QVQctX70wRYRMFuA8GO2sObr51o4y440bAgBBBBAAAG5Aud/JXLWiOpzmo9dKD4CvQkQfnrT4bV/CHAtnNyjEVtHAAEEEEDAJIHDXxDeP4m8t0VdOsMeBJwgQPhxQisbV0euhTPp2MNqEUAAAQQQsFLg2BMiOV4UfSgaC40bJbAmBDQQIPxo0EjKFbHGK7JXi7M/ZVYABBBAAAEEENBJ4OS3RNo8UbpLNFcrN7qgQAhYIkD4sYTZrhupOi2yVojTP9Cp37fyvBrbQgABBBBAQAWBMz8QGUtF+SER8Nt1SEK9EAhSgPATJBSL9SpQeVxkLhWn/5MUhAACCCCAAAJKCBx7ovXHPNmrRfXZXg/hvIiAswQIP85qb9NrW3FIpC8Sp76tRL+vwsk2yoAAAggggIBlAsefFEl/E3lviMqTItBo+kGfDSCgoQDhR8NGU7/IgRZRtl+kzRcnvkEKQgABBBBAAAETBU58U6TMEAXvihqv+gMESoiAdAHCj/QmsHUB/PWidLdInSWOf83Eft+yM2psCAEEEEAAARUETj0l0uaI4q3MT23rURSVM0WA8GMKKyvtLNBcLUp2iLS54vT3SUEIIIAAAgggELLA6e+J9AWiZKdoyO98kOVvBBAIWoDwEzQVCxolUJcpireJ9IXizI9D7vpVON9GGRBAAAEEELBA4PDnxdmfifTFomyvaC436iDMehBwuADhx+E7gOzqN+S1nsTKWEwQIgcigAACCDhd4PhXhef3InOZKN4u6tJkH6HZPgL2FCD82LNdtaxVY1Hrya2MJQQhpx/+LTifyiYQQAABFQRO/YdIihW5r4ryRNFYpOWxm0IjoJsA4Ue3FnNIeZvLRek+ghApCAEEEEDAPgJHvijO/VfrVKgFm0T1OeGvd8ghnWoioJQA4Uep5qAw3Qk0V7eeEst7U6TOEed+KY5+xT4HQhXOO1IGBBBAAAGTBI4/KTx/EFkrWi/wrsvo7gjHcwggYLUA4cdqcbZngEBTqag8Lgo3iYznhOd33E2INIgAAgggIFPgyJfEmR8K39OtP2HNWy9K94raZNFSbcDxjlUggIDRAoQfo0VZnxSBlhpRfV4UbRWZy4X3aXHqKZlHQZPOILJaBBBAAAG5Akcfbb1hg/d/WycszX9LlO5pva9oc4WU4x4bRQCB8AQIP+G58S7lBQLNojZFlHwisleL9GdF0l/FuV+Ik98SRx4hFyGAAAIIINCbwJFHxKnvCs8fW++rk7dOlOwS1W4mm1b+wE8BEQhKgPATFBML2UqgpVrUZ4qqE60XYee/3Xo1dupM4f2DOPsjcfzJ3g6Hcs84snUEEEAAgUgEDn9RHP/X1q9uzv9K+P4iUmeLzKUi51VR8F7rmbKKo6LG13r/0JYaWx3yqAwCCHQUIPx09OAvBERANJWI2iRRcUgUfShyXxNZL7bOO5f+rEiZKZLjWq/qdv+u9dh59qfizA/Eyadaf3R07HFx5P+IQw+TnRBAAAEEjBc4/PnWPvboY+LYE61nqU78mzj1bXH6u62d8Nkfi3M/F+f/W7h/I5KeEWlzRdZykfu6KHy/9bK0yhOtP79pLGRqNQ7vCCDwqQDhhz0BAUMF/I2tP3JtKhH1uaIuvfVy8OozrUdf/kUAAQQQ6CpQdbp10ucab+uFynUZoj5HNOaLpuLWa8xaqlsTS6BJiICh3TQrQwABRwsQfhzd/FQeAQQQQAABBBBAAAHnCBB+nNPW1BQBBBBAAAEEEEAAAUcLEH4c3fxUHgEEEEAAAQQQQAAB5wgQfpzT1tQUAQQQQAABBBBAAAFHCxB+HN38VB4BBBBAAAEEEEAAAecIEH6c09bUFAEEEEAAAQQQQAABRwsQfhzd/FQeAQQQQAABBBBAAAHnCBB+nNPW1BQBBBBAAAEEEEAAAUcLEH4c3fxUHgEEEEAAAQQQQAAB5wgQfpzT1tQUAQQQQAABBBBAAAFHCxB+HN38VB4BBBBAAAEEEEAAAecIEH6c09bUFAEEEEAAAQQQQAABRwsQfhzd/FQeAQQQQAABBBBAAAHnCBB+nNPW1BQBBBBAAAEEEEAAAUcLEH4c3fxUHgEEEEAAAQQQQAAB5wgQfpzT1tQUAQQQQAABBBBAAAFHCxB+HN38VB4BBBBAAAEEEEAAAecIEH6c09bUFAEEEEAAAQQQQAABRwsQfhzd/FQeAQQQQAABBBBAAAHnCBB+nNPW1BQBBBBAAAEEEEAAAUcLEH4c3fxUHgEEEEAAAQQQQAAB5wgQfpzT1tQUAQQQQAABBBBAAAFHCxB+HN38VB4BBBBAAAEEEEAAAecIEH6c09bUFAEEEEAAAQQQQAABRwsQfhzd/FQeAQQQQAABBBBAAAHnCBB+nNPW1BQBBBBAAAEEEEAAAUcLEH4c3fxUHgEEEEAAAQQQQAAB5wgQfpzT1tQUAQQQQAABBBBAAAFHCxB+HN38VB4BBBBAAAEEEEAAAecI/H8QY/Ufy6PD/AAAAABJRU5ErkJggg==;flipH=1;rotation=110;opacity=50;" vertex="1" parent="1">
                    <mxGeometry x="108.85" y="381.15" width="330" height="316.3" as="geometry"/>
                </mxCell>
            </root>
        </mxGraphModel>
    </diagram>
</mxfile>